<svg id="Layer_1" data-name="Layer 1" xmlns="http://www.w3.org/2000/svg" xmlns:xlink="http://www.w3.org/1999/xlink" viewBox="0 0 1388.05 1088.08"><defs><style>.cls-1,.cls-18,.cls-75{fill:none;}.cls-2{fill:url(#linear-gradient);}.cls-3{clip-path:url(#clip-path);}.cls-4{fill:#6981c0;}.cls-5{fill:#8095cc;}.cls-6{fill:#3b52a1;}.cls-13,.cls-7{fill:#224797;}.cls-8{fill:#4864ab;}.cls-9{fill:#5079bc;}.cls-10{fill:#204183;}.cls-11{fill:#254a9a;}.cls-12{fill:#5977b1;}.cls-13{opacity:0.38;}.cls-14,.cls-15{fill:#1e2350;}.cls-15,.cls-34{opacity:0.72;}.cls-16,.cls-17{fill:#caeaf2;}.cls-16{opacity:0.66;}.cls-18{stroke:#5d3b7f;stroke-width:0.75px;}.cls-18,.cls-75{stroke-miterlimit:10;}.cls-19,.cls-20,.cls-21,.cls-22,.cls-95{fill:#fff;}.cls-20{opacity:0.05;}.cls-21{opacity:0.15;}.cls-22{opacity:0.08;}.cls-23{fill:#ccc8bc;}.cls-24{fill:#e8e5da;}.cls-25{fill:#f3efe4;}.cls-26,.cls-47,.cls-59,.cls-66{fill:#fffef5;}.cls-27{fill:#1a3c6b;}.cls-28{fill:#4269af;}.cls-29{fill:#718dc5;}.cls-30,.cls-34{fill:#a2dbe0;}.cls-31{fill:#385f60;}.cls-32{fill:#0b233b;}.cls-33{fill:#77c4ca;opacity:0.55;}.cls-35{fill:#2f5896;}.cls-36{fill:#2d768e;}.cls-37,.cls-39,.cls-62,.cls-63{fill:#121634;}.cls-38{fill:url(#linear-gradient-2);}.cls-39{opacity:0.31;}.cls-40,.cls-88,.cls-92{opacity:0.74;}.cls-40{fill:url(#linear-gradient-3);}.cls-41,.cls-73,.cls-79{opacity:0.58;}.cls-41{fill:url(#linear-gradient-4);}.cls-42{fill:url(#linear-gradient-5);}.cls-43{fill:#ffc717;}.cls-44{fill:url(#linear-gradient-6);}.cls-45{fill:#fbf49d;}.cls-46{fill:#f28082;}.cls-47,.cls-62{opacity:0.16;}.cls-48{opacity:0.43;fill:url(#linear-gradient-7);}.cls-49{fill:#1c224c;}.cls-50{fill:url(#linear-gradient-8);}.cls-51{fill:#010101;opacity:0.26;}.cls-52{fill:url(#linear-gradient-9);}.cls-53{fill:#e17982;}.cls-54,.cls-67,.cls-80,.cls-81,.cls-82,.cls-83,.cls-84,.cls-86{opacity:0.21;}.cls-54{fill:url(#linear-gradient-10);}.cls-55{fill:url(#linear-gradient-11);}.cls-56{fill:url(#linear-gradient-12);}.cls-57{fill:#7d7bab;}.cls-57,.cls-65{opacity:0.13;}.cls-58,.cls-85{opacity:0.52;}.cls-58{fill:url(#linear-gradient-13);}.cls-59,.cls-96{opacity:0.36;}.cls-60{fill:#2f5188;opacity:0.7;}.cls-61{fill:url(#linear-gradient-14);}.cls-63{opacity:0.45;}.cls-64{fill:url(#linear-gradient-15);}.cls-66,.cls-71{opacity:0.4;}.cls-67{fill:url(#linear-gradient-16);}.cls-68{fill:url(#linear-gradient-17);}.cls-69{fill:url(#linear-gradient-18);}.cls-70{fill:url(#linear-gradient-19);}.cls-71{fill:#65c9e8;}.cls-72{fill:#51b7dc;}.cls-73{fill:url(#linear-gradient-20);}.cls-74{fill:url(#linear-gradient-21);}.cls-75{stroke:#1c224c;stroke-width:2px;}.cls-76{fill:url(#linear-gradient-22);}.cls-77{fill:url(#linear-gradient-23);}.cls-78{fill:url(#linear-gradient-24);}.cls-79{fill:url(#linear-gradient-25);}.cls-80{fill:url(#linear-gradient-26);}.cls-81{fill:url(#linear-gradient-27);}.cls-82{fill:url(#linear-gradient-28);}.cls-83{fill:url(#linear-gradient-29);}.cls-84{fill:url(#linear-gradient-30);}.cls-85{fill:url(#linear-gradient-31);}.cls-86{fill:url(#linear-gradient-32);}.cls-87{opacity:0.54;fill:url(#linear-gradient-33);}.cls-88{fill:url(#linear-gradient-34);}.cls-89,.cls-90{opacity:0.33;}.cls-89{fill:url(#linear-gradient-35);}.cls-90{fill:url(#linear-gradient-36);}.cls-91{fill:url(#linear-gradient-37);}.cls-92{fill:url(#linear-gradient-38);}.cls-93{opacity:0.47;fill:url(#linear-gradient-39);}.cls-94{fill:url(#linear-gradient-40);}.cls-95{opacity:0.09;}</style><linearGradient id="linear-gradient" x1="2123.2" y1="2065.11" x2="444.2" y2="253.21" gradientUnits="userSpaceOnUse"><stop offset="0.06" stop-color="#2d387e"/><stop offset="0.18" stop-color="#36397e"/><stop offset="0.39" stop-color="#503a7f"/><stop offset="0.48" stop-color="#5d3b7f"/><stop offset="0.52" stop-color="#694082"/><stop offset="0.6" stop-color="#884c8b"/><stop offset="0.71" stop-color="#bb6199"/><stop offset="0.8" stop-color="#eb74a6"/><stop offset="1" stop-color="#e3a1c0"/></linearGradient><clipPath id="clip-path" transform="translate(-234.07 -46.07)"><path class="cls-1" d="M1294.38,793.88c-24.28-210.7-316.09-267.61-334.52-373-9.43-54-19.24-116-53.26-161-32.43-42.87-78.49-73.32-123.32-89.21C623.2,113.9,496.49,223.79,459.36,389.27,409.85,610,498.85,896.81,712.3,992.29c111.63,49.93,236.1,56.85,344.8,37.1l2.44-.45C1168.35,1008.71,1312.91,954.74,1294.38,793.88Z"/></clipPath><linearGradient id="linear-gradient-2" x1="679.58" y1="735.78" x2="938.43" y2="735.78" gradientTransform="translate(41.14 -154.4) rotate(3.31)" gradientUnits="userSpaceOnUse"><stop offset="0.05" stop-color="#51b7dc"/><stop offset="1" stop-color="#fff"/></linearGradient><linearGradient id="linear-gradient-3" x1="844.76" y1="452.87" x2="844.76" y2="383.3" gradientTransform="translate(41.14 -154.4) rotate(3.31)" gradientUnits="userSpaceOnUse"><stop offset="0" stop-color="#64c6d2"/><stop offset="0.83" stop-color="#342b52"/></linearGradient><linearGradient id="linear-gradient-4" x1="700.97" y1="620.45" x2="751.13" y2="620.45" gradientTransform="translate(41.14 -154.4) rotate(3.31)" gradientUnits="userSpaceOnUse"><stop offset="0.1" stop-color="#1c224c"/><stop offset="0.42" stop-color="#2a326e"/></linearGradient><linearGradient id="linear-gradient-5" x1="694.75" y1="610.16" x2="750.52" y2="610.16" gradientTransform="translate(41.14 -154.4) rotate(3.31)" gradientUnits="userSpaceOnUse"><stop offset="0.41" stop-color="#1c224c"/><stop offset="1" stop-color="#2a326e"/></linearGradient><linearGradient id="linear-gradient-6" x1="720.09" y1="734.71" x2="739.03" y2="734.71" gradientTransform="matrix(0.95, 0.31, -0.31, 0.95, 251.96, -411.59)" gradientUnits="userSpaceOnUse"><stop offset="0.34" stop-color="#f78f21"/><stop offset="1" stop-color="#ffc717"/></linearGradient><linearGradient id="linear-gradient-7" x1="762.72" y1="550.71" x2="817.63" y2="550.71" xlink:href="#linear-gradient-4"/><linearGradient id="linear-gradient-8" x1="499.16" y1="694.09" x2="850.58" y2="694.09" gradientTransform="translate(-192.93 -200.47) rotate(3.31)" gradientUnits="userSpaceOnUse"><stop offset="0.1" stop-color="#ae1e48"/><stop offset="1" stop-color="#4a1426"/></linearGradient><linearGradient id="linear-gradient-9" x1="499.16" y1="452.21" x2="556.85" y2="452.21" xlink:href="#linear-gradient-4"/><linearGradient id="linear-gradient-10" x1="570.54" y1="754.16" x2="635.51" y2="754.16" xlink:href="#linear-gradient-4"/><linearGradient id="linear-gradient-11" x1="565.05" y1="1042.43" x2="934.77" y2="1042.43" xlink:href="#linear-gradient-5"/><linearGradient id="linear-gradient-12" x1="776.03" y1="859.67" x2="987.09" y2="1225.22" gradientTransform="translate(41.14 -154.4) rotate(3.31)" gradientUnits="userSpaceOnUse"><stop offset="0.24" stop-color="#1c224c"/><stop offset="0.73" stop-color="#2a326e"/></linearGradient><linearGradient id="linear-gradient-13" x1="726.91" y1="655.02" x2="891.21" y2="655.02" xlink:href="#linear-gradient-5"/><linearGradient id="linear-gradient-14" x1="928.59" y1="943.39" x2="928.59" y2="635.11" gradientTransform="translate(41.14 -154.4) rotate(3.31)" gradientUnits="userSpaceOnUse"><stop offset="0" stop-color="#2d387e"/><stop offset="0.34" stop-color="#4c387e"/><stop offset="0.6" stop-color="#5d3b7f"/><stop offset="1" stop-color="#eb74a6"/></linearGradient><linearGradient id="linear-gradient-15" x1="755" y1="811.06" x2="789.17" y2="811.06" gradientTransform="translate(-192.93 -200.47) rotate(3.31)" xlink:href="#linear-gradient-6"/><linearGradient id="linear-gradient-16" x1="1011.03" y1="884.64" x2="1069.6" y2="884.64" xlink:href="#linear-gradient-4"/><linearGradient id="linear-gradient-17" x1="1061.87" y1="903.94" x2="1062.19" y2="904.12" xlink:href="#linear-gradient-2"/><linearGradient id="linear-gradient-18" x1="1062.1" y1="903.64" x2="1062.38" y2="903.81" xlink:href="#linear-gradient-2"/><linearGradient id="linear-gradient-19" x1="826.06" y1="637.07" x2="1118.52" y2="805.92" xlink:href="#linear-gradient-2"/><linearGradient id="linear-gradient-20" x1="783.79" y1="605.71" x2="972.16" y2="605.71" xlink:href="#linear-gradient-4"/><linearGradient id="linear-gradient-21" x1="783.47" y1="589.1" x2="1084.71" y2="589.1" xlink:href="#linear-gradient-5"/><linearGradient id="linear-gradient-22" x1="797.82" y1="576.83" x2="1015.18" y2="576.83" xlink:href="#linear-gradient-4"/><linearGradient id="linear-gradient-23" x1="822.51" y1="477.5" x2="834.71" y2="477.5" gradientTransform="translate(41.14 -154.4) rotate(3.31)" gradientUnits="userSpaceOnUse"><stop offset="0.56" stop-color="#b73d67"/><stop offset="1" stop-color="#342b52" stop-opacity="0"/></linearGradient><linearGradient id="linear-gradient-24" x1="808.73" y1="623.5" x2="833.35" y2="623.5" gradientTransform="translate(380.24 -423.99) rotate(27.81)" xlink:href="#linear-gradient-6"/><linearGradient id="linear-gradient-25" x1="734.05" y1="643.23" x2="784.8" y2="643.23" xlink:href="#linear-gradient-4"/><linearGradient id="linear-gradient-26" x1="568.71" y1="709.37" x2="601.77" y2="709.37" xlink:href="#linear-gradient-4"/><linearGradient id="linear-gradient-27" x1="590.68" y1="716.69" x2="623.73" y2="716.69" xlink:href="#linear-gradient-4"/><linearGradient id="linear-gradient-28" x1="602.88" y1="739.87" x2="635.93" y2="739.87" xlink:href="#linear-gradient-4"/><linearGradient id="linear-gradient-29" x1="616.3" y1="760.61" x2="649.35" y2="760.61" xlink:href="#linear-gradient-4"/><linearGradient id="linear-gradient-30" x1="974.56" y1="942.02" x2="1039.12" y2="942.02" xlink:href="#linear-gradient-4"/><linearGradient id="linear-gradient-31" x1="946.36" y1="917.4" x2="994.73" y2="917.4" xlink:href="#linear-gradient-5"/><linearGradient id="linear-gradient-32" x1="959.9" y1="519.31" x2="987.16" y2="519.31" gradientTransform="translate(869.19 -288.73) rotate(57.22)" xlink:href="#linear-gradient-4"/><linearGradient id="linear-gradient-33" x1="726.27" y1="496.23" x2="749.15" y2="496.23" gradientTransform="translate(41.14 -154.4) rotate(3.31)" gradientUnits="userSpaceOnUse"><stop offset="0.49" stop-color="#b73d67"/><stop offset="1" stop-color="#342b52" stop-opacity="0"/></linearGradient><linearGradient id="linear-gradient-34" x1="783.27" y1="460.38" x2="783.27" y2="313.76" xlink:href="#linear-gradient-3"/><linearGradient id="linear-gradient-35" x1="716.64" y1="515.22" x2="716.64" y2="434.19" gradientTransform="translate(41.14 -154.4) rotate(3.31)" gradientUnits="userSpaceOnUse"><stop offset="0.64" stop-color="#ef467a"/><stop offset="1" stop-color="#342b52" stop-opacity="0"/></linearGradient><linearGradient id="linear-gradient-36" x1="706.64" y1="411.5" x2="706.64" y2="399.39" xlink:href="#linear-gradient-35"/><linearGradient id="linear-gradient-37" x1="695.83" y1="370.76" x2="695.83" y2="370.74" xlink:href="#linear-gradient-35"/><linearGradient id="linear-gradient-38" x1="729.87" y1="369.6" x2="729.87" y2="360.71" xlink:href="#linear-gradient-3"/><linearGradient id="linear-gradient-39" x1="784.5" y1="465.91" x2="784.5" y2="328.79" gradientTransform="translate(41.14 -154.4) rotate(3.31)" gradientUnits="userSpaceOnUse"><stop offset="0" stop-color="#64c6d2"/><stop offset="0.65" stop-color="#342b52"/></linearGradient><linearGradient id="linear-gradient-40" x1="749.56" y1="508.62" x2="749.56" y2="460.42" gradientTransform="translate(-192.93 -200.47) rotate(3.31)" xlink:href="#linear-gradient-39"/></defs><title>3.1 v2</title><path class="cls-2" d="M1294.38,793.88c-24.28-210.7-316.09-267.61-334.52-373-9.43-54-19.24-116-53.26-161-32.43-42.87-78.49-73.32-123.32-89.21C623.2,113.9,496.49,223.79,459.36,389.27,409.85,610,498.85,896.81,712.3,992.29c111.63,49.93,236.1,56.85,344.8,37.1l2.44-.45C1168.35,1008.71,1312.91,954.74,1294.38,793.88Z" transform="translate(-234.07 -46.07)"/><g class="cls-3"><polygon class="cls-4" points="0 922.57 203.29 996.06 345.32 996.06 399.85 1012.81 551.27 1008.16 671.85 917.91 623.79 870.78 586.58 823.64 579.13 818.06 558.67 788.91 546.61 797.6 535.72 815.58 508.13 785.18 469.36 778.99 461.3 769.68 433.39 760.38 370.13 656.81 340.98 634.48 307.49 640.06 301.28 649.37 249.8 706.42 243.61 735.58 90.42 814.34 0 922.57"/><path class="cls-5" d="M831.72,1038.41h432.11l-84.09-71.12h-35l-10.42-9.36-27.53-15-32.75,36.62-36.47-21.58H989.22l-19.35-26.77-93-14.32L857.86,900.5l-16.28-4.27S808.92,1021.52,831.72,1038.41Z" transform="translate(-234.07 -46.07)"/><polygon class="cls-6" points="537.96 1008.57 520.84 977.45 517.94 899.31 497.27 858.37 492.36 838.53 474.63 797.59 469.36 778.99 485.49 791.39 486.11 806.28 529.11 827.36 510.62 863.96 529.11 896.83 548.12 952.02 571.69 965.36 594.03 954.51 597.65 992.34 537.96 1008.57"/><path class="cls-7" d="M633.92,1058.88l4-42,16.15-18.76s.92-38.61,0-43.49-18.86-28.76-18.86-28.76L608.06,835.6,623.28,812,605.2,789.7l-13.34-26.05,4.7-18.6L590.91,724l-13.79-31,27.08,9.92,11.1,49.62,12.79,19.85L630,795.91l24.14,29.15,15.62,28.49,33.7,22.36,9.07,40.93,18.84,14.27,23.57,92.41L772,1054.63Z" transform="translate(-234.07 -46.07)"/><polygon class="cls-8" points="345.32 996.06 401.18 879.77 420.04 908.53 420.04 952.02 403.89 970.79 399.86 1012.81 345.32 996.06"/><polygon class="cls-9" points="367.69 949.48 372.61 873.88 354.62 829.53 357.1 792.63 350.28 774.03 371.13 743.64 389.21 765.96 374 789.53 401.18 879.77 367.69 949.48"/><polygon class="cls-10" points="257.25 996.06 242.36 863.96 264.07 810 261.59 778.99 267.17 743.64 275.86 703.32 295.7 682.24 243.6 735.57 249.87 778.99 183.44 813.1 180.34 863.96 109.02 891.87 141.27 985.41 209.33 996.06 257.25 996.06"/><polygon class="cls-8" points="183.44 813.1 139.62 878.84 180.34 863.96 183.44 813.1"/><polygon class="cls-8" points="90.41 814.34 97.23 853.72 7 914.19 90.41 814.34"/><polygon class="cls-6" points="97.23 853.72 139.62 878.84 58.36 879.77 97.23 853.72"/><polygon class="cls-11" points="97.23 853.72 161.53 802.55 183.44 813.1 139.62 878.84 97.23 853.72"/><polygon class="cls-5" points="497.27 858.37 469.36 829.85 459.4 798.83 435.66 785.18 433.39 760.38 461.3 769.68 469.36 778.99 474.63 797.59 492.36 838.53 497.27 858.37"/><polygon class="cls-5" points="623.79 870.78 586.58 823.64 598.98 858.37 623.79 870.78"/><polygon class="cls-5" points="586.58 823.64 579.13 818.06 577.28 821.78 586.58 823.64"/><polygon class="cls-5" points="546.61 797.6 551.84 798.22 555.88 803.49 579.13 818.06 558.67 788.91 546.61 797.6"/><polygon class="cls-5" points="535.72 815.58 529.11 827.36 506.88 791.08 469.36 778.99 508.13 785.18 535.72 815.58"/><polygon class="cls-5" points="433.39 760.38 416.95 750.46 401.18 729.06 399.59 717.9 384.7 699.91 370.13 656.81 433.39 760.38"/><polygon class="cls-5" points="370.13 656.81 340.98 634.48 343.05 646.88 370.13 656.81"/><polygon class="cls-5" points="307.49 640.06 332.29 645.64 340.98 634.48 307.49 640.06"/><polygon class="cls-5" points="343.05 646.88 326.71 663.63 324.23 700.53 330.74 716.04 343.05 646.88"/><polygon class="cls-5" points="295.7 682.24 319.58 656.81 295.7 669.52 275.86 703.32 295.7 682.24"/><polygon class="cls-5" points="307.49 640.06 307.49 649.67 301.28 649.37 297.72 656.81 249.8 706.42 307.49 640.06"/><polygon class="cls-5" points="246.49 755.54 158.87 779.14 243.6 735.57 246.49 755.54"/><polygon class="cls-5" points="158.87 779.14 126.39 810.31 90.41 814.34 158.87 779.14"/><polygon class="cls-12" points="330.74 716.04 350.28 774.03 327.95 763.48 319.58 722.55 324.23 700.53 330.74 716.04"/><polygon class="cls-12" points="356.84 677.89 350.28 706.42 357.79 717.59 362.49 698.98 356.84 677.89"/><polygon class="cls-12" points="319.58 656.81 326.71 663.63 324.23 700.53 304.15 673.24 319.58 656.81"/><polygon class="cls-12" points="401.18 729.06 381.24 706.42 384.7 699.91 399.59 717.9 401.18 729.06"/><polygon class="cls-12" points="332.29 645.64 307.49 656.81 307.49 640.06 332.29 645.64"/><polygon class="cls-12" points="295.7 669.52 249.8 706.42 260.97 708.59 295.7 669.52"/><polygon class="cls-5" points="319.58 722.55 278.64 750.66 278.64 841.63 319.58 788.91 327.95 763.48 319.58 722.55"/><polygon class="cls-8" points="616.04 900.75 598.98 858.37 571.69 965.36 597.65 952.11 616.04 900.75"/><polygon class="cls-10" points="559.7 996.06 548.12 952.02 529.11 896.83 497.27 858.37 517.94 899.31 520.84 977.45 537.96 1008.57 559.7 996.06"/><polygon class="cls-12" points="354.62 829.53 326.71 802.55 351.52 874.81 340.67 939.93 358.98 967.63 367.69 949.48 372.61 873.88 354.62 829.53"/><polygon class="cls-12" points="555.88 803.49 510.62 863.96 546.61 797.6 551.84 798.22 555.88 803.49"/><polygon class="cls-12" points="577.28 821.78 562.87 843.7 570.07 812.38 579.13 818.06 577.28 821.78"/><polygon class="cls-12" points="571.69 965.36 562.87 843.7 548.12 952.02 571.69 965.36"/><polygon class="cls-10" points="327.95 763.48 326.71 802.55 278.64 841.63 319.58 788.91 327.95 763.48"/><polygon class="cls-5" points="323.92 996.06 290.43 903.88 278.64 841.63 272.75 911.87 287.64 996.06 323.92 996.06"/><polygon class="cls-4" points="465.33 1010.8 420.04 952.02 403.89 970.79 399.86 1012.81 465.33 1010.8"/><polygon class="cls-10" points="435.66 807.48 478.43 870.78 469.36 829.85 435.66 807.48"/><polygon class="cls-10" points="358.98 967.63 351.52 874.81 340.67 939.93 358.98 967.63"/><polygon class="cls-5" points="93.26 830.78 15.62 903.88 90.41 814.34 93.26 830.78"/><polygon class="cls-10" points="529.11 896.83 555.88 803.49 510.62 863.96 529.11 896.83"/><polygon class="cls-13" points="586.58 996.06 571.69 965.36 556.4 891.25 555.88 803.49 510.62 863.96 529.11 896.83 559.91 999.65 586.58 996.06"/><polygon class="cls-10" points="616.04 900.75 680.36 973.51 723.89 992.34 597.65 992.34 594.03 954.51 597.65 952.11 616.04 900.75"/><polygon class="cls-10" points="623.79 870.78 682.72 921.25 688.67 949.16 616.04 900.75 598.98 858.37 623.79 870.78"/><polygon class="cls-10" points="1029.76 992.34 956.09 971.36 874.22 963.98 922.35 992.34 1029.76 992.34"/><polygon class="cls-10" points="755.15 911.87 805.76 949.16 874.22 963.98 839.99 933.45 803.52 911.87 755.15 911.87"/><polygon class="cls-10" points="874.22 963.98 816.67 971.36 751.68 982.42 715.96 945.71 688.67 949.16 723.89 992.34 922.35 992.34 874.22 963.98"/><polygon class="cls-10" points="956.09 971.36 910.69 921.22 910.69 967.63 956.09 971.36"/><polygon class="cls-13" points="715.96 945.71 735.8 885.09 682.72 921.25 688.67 949.16 715.96 945.71"/><polygon class="cls-6" points="723.89 992.34 688.67 949.16 616.04 900.75 680.36 973.51 723.89 992.34"/><polygon class="cls-6" points="874.22 963.98 805.76 949.16 755.15 911.87 735.8 885.09 715.96 945.71 751.68 982.42 874.22 963.98"/><polygon class="cls-6" points="707.26 904.53 623.79 870.78 682.72 921.25 707.26 904.53"/><polygon class="cls-6" points="1029.76 992.34 982.38 963.98 910.69 921.22 956.09 971.36 1029.76 992.34"/><polygon class="cls-6" points="910.69 967.63 894.07 933.75 872.74 896.83 880.18 942.25 874.22 963.98 910.69 967.63"/><polygon class="cls-14" points="335.93 996.06 345.32 996.06 399.86 1012.81 305.65 1030.55 286.3 1027.03 308.63 1040.8 222.9 1042.97 194.6 1004.7 218.63 999.65 316.58 999.65 312.03 996.06 335.93 996.06"/><polygon class="cls-15" points="506.09 979.73 465.33 936.18 457.05 904.53 433.39 882.91 399.86 806.59 400.75 774.03 389.21 765.96 374 789.53 401.18 879.77 420.04 908.53 420.04 952.02 465.33 1010.8 537.96 1008.57 506.09 979.73"/><polygon class="cls-15" points="400.75 774.03 417.87 788.91 447.54 852.19 400.34 788.91 400.75 774.03"/><polygon class="cls-14" points="529.11 896.83 537.96 1008.57 520.84 977.45 517.94 899.31 497.27 858.37 529.11 896.83"/><polygon class="cls-14" points="723.89 992.34 665.53 978.92 616.04 900.75 598.98 858.37 594.03 954.51 597.65 992.34 723.89 992.34"/><polygon class="cls-14" points="1029.76 992.34 944.15 982.42 910.69 921.22 910.69 967.63 905.48 979.83 874.22 963.98 828.08 940.76 805.76 949.16 840.92 969.03 774.5 978.98 747.21 952.02 755.15 911.87 715.96 945.71 751.68 982.42 688.67 949.16 723.89 992.34 1029.76 992.34"/><polygon class="cls-14" points="682.72 921.25 623.79 870.78 695.17 912.76 682.72 921.25"/><polygon class="cls-10" points="510.62 863.96 490.58 820.85 521.9 841.63 510.62 863.96"/><polygon class="cls-14" points="345.32 996.06 330.43 996.06 325.16 992.34 310.38 958.78 290.43 903.88 316.32 849.97 326.71 802.55 351.52 874.81 340.67 939.93 358.98 967.63 345.32 996.06"/><polygon class="cls-7" points="324.23 700.53 295.7 712.66 278.64 750.66 319.58 722.55 324.23 700.53"/><polygon class="cls-10" points="278.64 841.63 255.79 884.11 263.9 942.24 254.35 970.31 266.55 972.45 278.64 962.57 281.77 962.84 272.75 911.87 278.64 841.63"/><polygon class="cls-14" points="275.86 703.32 258.02 747.33 261.59 778.99 254.35 785.91 254.35 802.55 222.9 843.7 222.02 877.56 212.76 918.95 216.94 917.92 227.17 926.66 228.72 933.42 238.13 936.18 241.43 942.24 238.13 950.43 247.95 961.17 249.87 970.31 266.55 972.45 254.35 965.14 247.23 940.07 249.21 924.74 247.04 869.87 242.36 863.96 264.07 810 262.49 782.09 265.65 771.08 262.3 745.51 275.86 703.32"/><polygon class="cls-16" points="370.13 656.81 389.25 698.9 433.39 760.38 370.13 656.81"/><polygon class="cls-16" points="433.39 760.38 443.57 776.27 455.98 778.99 459.95 788.85 465.33 788.91 478.43 824.89 497.27 858.37 492.36 838.53 474.63 797.59 469.36 778.99 461.3 769.68 433.39 760.38"/><polygon class="cls-16" points="579.13 818.06 555.88 803.49 551.84 798.22 558.67 788.91 579.13 818.06"/><polygon class="cls-16" points="735.8 885.09 707.26 904.53 642.85 870.78 735.8 885.09"/><polygon class="cls-16" points="607.51 850.16 601.1 850.16 586.58 823.64 607.51 850.16"/><polygon class="cls-16" points="642.85 870.78 629.01 865.28 607.51 850.16 623.79 854.43 642.85 870.78"/><polygon class="cls-16" points="579.13 818.06 568.35 847.21 571.69 965.36 562.87 843.7 579.13 818.06"/><polygon class="cls-16" points="529.11 827.36 506.88 791.08 469.36 778.99 508.13 785.18 535.72 815.58 529.11 827.36"/><polygon class="cls-16" points="872.74 896.83 864.92 932.23 853.74 945.71 839.99 933.45 872.74 896.83"/><polygon class="cls-16" points="910.69 921.22 910.69 967.63 901.34 932.23 901.34 919.55 872.74 896.83 900.27 911.87 910.69 921.22"/><polygon class="cls-16" points="1029.76 992.34 948.92 935.93 944.92 925.36 910.69 921.22 945.67 921.22 1029.76 992.34"/><polygon class="cls-16" points="755.15 911.87 781.2 919.18 840.92 969.03 805.76 949.16 755.15 911.87"/><polygon class="cls-16" points="735.8 885.09 715.96 925.36 688.67 949.16 703.43 925.36 735.8 885.09"/><polygon class="cls-16" points="598.98 858.37 643.82 899.31 688.67 949.16 627.89 896.01 598.98 858.37"/><polygon class="cls-16" points="520.84 977.45 495.42 922.9 486.86 885.09 461.56 867.95 435.66 807.48 478.43 870.78 497.27 885.04 520.84 977.45"/><polygon class="cls-16" points="343.05 646.88 358.98 668.06 367.42 697.74 365.19 716.04 377.46 743.64 389.21 765.96 371.13 743.64 357.79 717.59 362.49 698.98 356.38 682.24 343.05 646.88"/><polygon class="cls-16" points="324.23 700.53 327.95 732.68 350.28 774.03 327.95 763.48 319.58 722.55 324.23 700.53"/><polygon class="cls-16" points="340.98 634.48 334.93 651.05 307.49 656.81 332.29 645.64 340.98 634.48"/><polygon class="cls-17" points="370.13 656.81 346.95 643.08 340.98 634.48 370.13 656.81"/><polygon class="cls-16" points="295.7 738.95 278.64 841.63 278.64 750.66 295.7 738.95"/><polygon class="cls-16" points="326.71 802.55 350.28 845.97 351.52 874.81 326.71 802.55"/><polygon class="cls-16" points="249.8 706.42 249.8 722.55 243.6 735.57 249.8 706.42"/><polygon class="cls-4" points="788.06 951.47 906.5 994.29 989.26 994.29 1021.03 1004.05 1109.26 1001.34 1179.51 948.76 1151.51 921.29 1129.83 893.83 1125.49 890.58 1113.57 873.59 1106.54 878.66 1100.19 889.13 1084.12 871.42 1061.53 867.81 1056.83 862.39 1040.57 856.97 1003.71 796.63 986.73 783.62 967.22 786.87 963.6 792.29 933.61 825.53 930 842.52 840.74 888.41 788.06 951.47"/><path class="cls-5" d="M1370.35,1038.19h251.77l-49-41.44h-20.38l-6.07-5.45-16.05-8.76-19.07,21.34L1490.3,991.3h-28.19l-11.27-15.6-54.16-8.34-11.1-9.52-9.49-2.49S1357.07,1028.35,1370.35,1038.19Z" transform="translate(-234.07 -46.07)"/><polygon class="cls-6" points="1101.5 1001.58 1091.52 983.45 1089.84 937.92 1077.79 914.07 1074.93 902.5 1064.6 878.65 1061.53 867.81 1070.92 875.04 1071.29 883.71 1096.34 896 1085.57 917.32 1096.34 936.47 1107.42 968.63 1121.15 976.4 1134.17 970.08 1136.28 992.12 1101.5 1001.58"/><path class="cls-7" d="M1255.1,1050.12l2.35-24.49,9.41-10.93s.54-22.5,0-25.34-11-16.76-11-16.76L1240,920l8.86-13.73-10.54-13-7.77-15.17,2.74-10.84L1230,855l-8-18.07,15.78,5.78,6.47,28.91,7.45,11.57,1.1,13.73,14.06,17,9.11,16.6,19.63,13,5.28,23.85,11,8.31,13.73,53.85,10,18.12Z" transform="translate(-234.07 -46.07)"/><polygon class="cls-8" points="989.26 994.29 1021.81 926.53 1032.8 943.29 1032.8 968.63 1023.38 979.56 1021.03 1004.05 989.26 994.29"/><polygon class="cls-9" points="1002.3 967.15 1005.16 923.1 994.68 897.26 996.12 875.76 992.15 864.92 1004.29 847.22 1014.83 860.23 1005.97 873.96 1021.81 926.53 1002.3 967.15"/><polygon class="cls-10" points="937.95 994.29 929.27 917.32 941.92 885.88 940.47 867.81 943.73 847.22 948.78 823.73 960.35 811.44 930 842.52 933.64 867.81 894.94 887.69 893.14 917.32 851.58 933.58 870.37 988.08 910.03 994.29 937.95 994.29"/><polygon class="cls-8" points="894.94 887.69 869.41 925.99 893.14 917.32 894.94 887.69"/><polygon class="cls-8" points="840.74 888.41 844.71 911.36 792.14 946.59 840.74 888.41"/><polygon class="cls-6" points="844.71 911.36 869.41 925.99 822.07 926.53 844.71 911.36"/><polygon class="cls-11" points="844.71 911.36 882.17 881.54 894.94 887.69 869.41 925.99 844.71 911.36"/><polygon class="cls-5" points="1077.79 914.07 1061.53 897.45 1055.73 879.38 1041.9 871.42 1040.57 856.97 1056.83 862.39 1061.53 867.81 1064.6 878.65 1074.93 902.5 1077.79 914.07"/><polygon class="cls-5" points="1151.51 921.29 1129.83 893.83 1137.05 914.07 1151.51 921.29"/><polygon class="cls-5" points="1129.83 893.83 1125.49 890.58 1124.41 892.75 1129.83 893.83"/><polygon class="cls-5" points="1106.54 878.66 1109.59 879.02 1111.94 882.09 1125.49 890.58 1113.57 873.59 1106.54 878.66"/><polygon class="cls-5" points="1100.19 889.13 1096.34 896 1083.39 874.86 1061.53 867.81 1084.12 871.42 1100.19 889.13"/><polygon class="cls-5" points="1040.57 856.97 1030.99 851.19 1021.81 838.72 1020.88 832.22 1012.2 821.74 1003.71 796.63 1040.57 856.97"/><polygon class="cls-5" points="1003.71 796.63 986.73 783.62 987.93 790.84 1003.71 796.63"/><polygon class="cls-5" points="967.22 786.87 981.67 790.12 986.73 783.62 967.22 786.87"/><polygon class="cls-5" points="987.93 790.84 978.42 800.6 976.97 822.1 980.77 831.13 987.93 790.84"/><polygon class="cls-5" points="960.35 811.44 974.26 796.63 960.35 804.03 948.78 823.73 960.35 811.44"/><polygon class="cls-5" points="967.22 786.87 967.22 792.47 963.6 792.29 961.52 796.63 933.61 825.53 967.22 786.87"/><polygon class="cls-5" points="931.67 854.15 880.62 867.9 930 842.52 931.67 854.15"/><polygon class="cls-5" points="880.62 867.9 861.7 886.06 840.74 888.41 880.62 867.9"/><polygon class="cls-12" points="980.77 831.13 992.15 864.92 979.14 858.78 974.26 834.93 976.97 822.1 980.77 831.13"/><polygon class="cls-12" points="995.97 808.91 992.15 825.53 996.52 832.04 999.26 821.2 995.97 808.91"/><polygon class="cls-12" points="974.26 796.63 978.42 800.6 976.97 822.1 965.27 806.2 974.26 796.63"/><polygon class="cls-12" points="1021.81 838.72 1010.18 825.53 1012.2 821.74 1020.88 832.22 1021.81 838.72"/><polygon class="cls-12" points="981.67 790.12 967.22 796.63 967.22 786.87 981.67 790.12"/><polygon class="cls-12" points="960.35 804.03 933.61 825.53 940.11 826.8 960.35 804.03"/><polygon class="cls-5" points="974.26 834.93 950.41 851.31 950.41 904.31 974.26 873.59 979.14 858.78 974.26 834.93"/><polygon class="cls-8" points="1146.99 938.76 1137.05 914.07 1121.15 976.4 1136.28 968.68 1146.99 938.76"/><polygon class="cls-10" points="1114.17 994.29 1107.42 968.63 1096.34 936.47 1077.79 914.07 1089.84 937.92 1091.52 983.45 1101.5 1001.58 1114.17 994.29"/><polygon class="cls-12" points="994.68 897.26 978.42 881.54 992.87 923.64 986.55 961.59 997.22 977.73 1002.3 967.15 1005.16 923.1 994.68 897.26"/><polygon class="cls-12" points="1111.94 882.09 1085.57 917.32 1106.54 878.66 1109.59 879.02 1111.94 882.09"/><polygon class="cls-12" points="1124.41 892.75 1116.01 905.51 1120.21 887.27 1125.49 890.58 1124.41 892.75"/><polygon class="cls-12" points="1121.15 976.4 1116.01 905.51 1107.42 968.63 1121.15 976.4"/><polygon class="cls-10" points="979.14 858.78 978.42 881.54 950.41 904.31 974.26 873.59 979.14 858.78"/><polygon class="cls-5" points="976.79 994.29 957.28 940.58 950.41 904.31 946.98 945.24 955.65 994.29 976.79 994.29"/><polygon class="cls-4" points="1059.18 1002.88 1032.8 968.63 1023.38 979.56 1021.03 1004.05 1059.18 1002.88"/><polygon class="cls-10" points="1041.9 884.41 1066.81 921.29 1061.53 897.45 1041.9 884.41"/><polygon class="cls-10" points="997.22 977.73 992.87 923.64 986.55 961.59 997.22 977.73"/><polygon class="cls-5" points="842.4 897.99 797.16 940.58 840.74 888.41 842.4 897.99"/><polygon class="cls-10" points="1096.34 936.47 1111.94 882.09 1085.57 917.32 1096.34 936.47"/><polygon class="cls-13" points="1129.83 994.29 1121.15 976.4 1112.24 933.22 1111.94 882.09 1085.57 917.32 1096.34 936.47 1114.29 996.38 1129.83 994.29"/><polygon class="cls-10" points="1146.99 938.76 1184.47 981.15 1209.83 992.12 1136.28 992.12 1134.17 970.08 1136.28 968.68 1146.99 938.76"/><polygon class="cls-10" points="1151.51 921.29 1185.84 950.7 1189.31 966.96 1146.99 938.76 1137.05 914.07 1151.51 921.29"/><polygon class="cls-10" points="1388.05 992.12 1345.12 979.9 1297.42 975.6 1325.46 992.12 1388.05 992.12"/><polygon class="cls-10" points="1228.05 945.24 1257.53 966.96 1297.42 975.6 1277.48 957.81 1256.23 945.24 1228.05 945.24"/><polygon class="cls-10" points="1297.42 975.6 1263.89 979.9 1226.02 986.34 1205.21 964.96 1189.31 966.96 1209.83 992.12 1325.46 992.12 1297.42 975.6"/><polygon class="cls-10" points="1345.12 979.9 1318.67 950.68 1318.67 977.73 1345.12 979.9"/><polygon class="cls-13" points="1205.21 964.96 1216.77 929.63 1185.84 950.7 1189.31 966.96 1205.21 964.96"/><polygon class="cls-6" points="1209.83 992.12 1189.31 966.96 1146.99 938.76 1184.47 981.15 1209.83 992.12"/><polygon class="cls-6" points="1297.42 975.6 1257.53 966.96 1228.05 945.24 1216.77 929.63 1205.21 964.96 1226.02 986.34 1297.42 975.6"/><polygon class="cls-6" points="1200.14 940.96 1151.51 921.29 1185.84 950.7 1200.14 940.96"/><polygon class="cls-6" points="1388.05 992.12 1360.44 975.6 1318.67 950.68 1345.12 979.9 1388.05 992.12"/><polygon class="cls-6" points="1318.67 977.73 1308.98 957.99 1296.56 936.47 1300.89 962.94 1297.42 975.6 1318.67 977.73"/><polygon class="cls-15" points="1082.93 984.77 1059.18 959.4 1054.36 940.96 1040.57 928.37 1021.03 883.89 1021.55 864.92 1014.83 860.23 1005.97 873.96 1021.81 926.53 1032.8 943.29 1032.8 968.63 1059.18 1002.88 1101.5 1001.58 1082.93 984.77"/><polygon class="cls-15" points="1021.55 864.92 1031.53 873.59 1048.82 910.47 1021.32 873.59 1021.55 864.92"/><polygon class="cls-14" points="1096.34 936.47 1101.5 1001.58 1091.52 983.45 1089.84 937.92 1077.79 914.07 1096.34 936.47"/><polygon class="cls-14" points="1209.83 992.12 1175.83 984.3 1146.99 938.76 1137.05 914.07 1134.17 970.08 1136.28 992.12 1209.83 992.12"/><polygon class="cls-14" points="1388.05 992.12 1338.16 986.34 1318.67 950.68 1318.67 977.73 1315.63 984.84 1297.42 975.6 1270.54 962.07 1257.53 966.96 1278.02 978.54 1239.32 984.34 1223.42 968.63 1228.05 945.24 1205.21 964.96 1226.02 986.34 1189.31 966.96 1209.83 992.12 1388.05 992.12"/><polygon class="cls-14" points="1185.84 950.7 1151.51 921.29 1193.1 945.76 1185.84 950.7"/><polygon class="cls-10" points="1085.57 917.32 1073.9 892.21 1092.14 904.31 1085.57 917.32"/><polygon class="cls-14" points="989.26 994.29 980.59 994.29 977.51 992.12 968.9 972.57 957.28 940.58 972.36 909.17 978.42 881.54 992.87 923.64 986.55 961.59 997.22 977.73 989.26 994.29"/><polygon class="cls-7" points="976.97 822.1 960.35 829.17 950.41 851.31 974.26 834.93 976.97 822.1"/><polygon class="cls-10" points="950.41 904.31 937.09 929.06 941.82 962.93 936.25 979.29 943.37 980.53 950.41 974.78 952.23 974.93 946.98 945.24 950.41 904.31"/><polygon class="cls-14" points="948.78 823.73 938.39 849.37 940.47 867.81 936.25 871.85 936.25 881.54 917.93 905.51 917.42 925.24 912.02 949.36 914.46 948.76 920.42 953.85 921.32 957.79 926.81 959.4 928.73 962.93 926.81 967.7 932.52 973.96 933.64 979.29 943.37 980.53 936.25 976.27 932.11 961.67 933.26 952.73 932 920.76 929.27 917.32 941.92 885.88 941 869.62 942.84 863.21 940.89 848.31 948.78 823.73"/><polygon class="cls-16" points="1003.71 796.63 1014.85 821.15 1040.57 856.97 1003.71 796.63"/><polygon class="cls-16" points="1040.57 856.97 1046.51 866.23 1053.73 867.81 1056.05 873.56 1059.18 873.59 1066.81 894.56 1077.79 914.07 1074.93 902.5 1064.6 878.65 1061.53 867.81 1056.83 862.39 1040.57 856.97"/><polygon class="cls-16" points="1125.49 890.58 1111.94 882.09 1109.59 879.02 1113.57 873.59 1125.49 890.58"/><polygon class="cls-16" points="1216.77 929.63 1200.14 940.96 1162.61 921.29 1216.77 929.63"/><polygon class="cls-16" points="1142.03 909.28 1138.29 909.28 1129.83 893.83 1142.03 909.28"/><polygon class="cls-16" points="1162.61 921.29 1154.55 918.09 1142.03 909.28 1151.51 911.77 1162.61 921.29"/><polygon class="cls-16" points="1125.49 890.58 1119.21 907.56 1121.15 976.4 1116.01 905.51 1125.49 890.58"/><polygon class="cls-16" points="1096.34 896 1083.39 874.86 1061.53 867.81 1084.12 871.42 1100.19 889.13 1096.34 896"/><polygon class="cls-16" points="1296.56 936.47 1292 957.1 1285.49 964.96 1277.48 957.81 1296.56 936.47"/><polygon class="cls-16" points="1318.67 950.68 1318.67 977.73 1313.22 957.1 1313.22 949.71 1296.56 936.47 1312.6 945.24 1318.67 950.68"/><polygon class="cls-16" points="1388.05 992.12 1340.94 959.25 1338.62 953.09 1318.67 950.68 1339.05 950.68 1388.05 992.12"/><polygon class="cls-16" points="1228.05 945.24 1243.22 949.5 1278.02 978.54 1257.53 966.96 1228.05 945.24"/><polygon class="cls-16" points="1216.77 929.63 1205.21 953.09 1189.31 966.96 1197.91 953.09 1216.77 929.63"/><polygon class="cls-16" points="1137.05 914.07 1163.18 937.92 1189.31 966.96 1153.9 936 1137.05 914.07"/><polygon class="cls-16" points="1091.52 983.45 1076.71 951.66 1071.73 929.63 1056.99 919.65 1041.9 884.41 1066.81 921.29 1077.79 929.61 1091.52 983.45"/><polygon class="cls-16" points="987.93 790.84 997.22 803.18 1002.13 820.48 1000.83 831.13 1007.99 847.22 1014.83 860.23 1004.29 847.22 996.52 832.04 999.26 821.2 995.71 811.44 987.93 790.84"/><polygon class="cls-16" points="976.97 822.1 979.14 840.84 992.15 864.92 979.14 858.78 974.26 834.93 976.97 822.1"/><polygon class="cls-16" points="986.73 783.62 983.21 793.27 967.22 796.63 981.67 790.12 986.73 783.62"/><polygon class="cls-17" points="1003.71 796.63 990.21 788.63 986.73 783.62 1003.71 796.63"/><polygon class="cls-16" points="960.35 844.49 950.41 904.31 950.41 851.31 960.35 844.49"/><polygon class="cls-16" points="978.42 881.54 992.15 906.84 992.87 923.64 978.42 881.54"/><polygon class="cls-16" points="933.61 825.53 933.61 834.93 930 842.52 933.61 825.53"/></g><path class="cls-18" d="M1268.63,872.12c4.73-212-276.57-308.28-280.43-415.2-2-54.75-3.22-117.56-30.77-166.76-26.27-46.9-67.74-83.35-110-105.22-150.83-78.1-291.37,13.45-350.74,172.31C417.5,569.16,466.5,865.43,664.9,989.16c103.76,64.71,226.12,88.58,336.51,83.86l2.47-.12C1114.43,1067.73,1265,1034,1268.63,872.12Z" transform="translate(-234.07 -46.07)"/><path class="cls-19" d="M734,451.74a1.5,1.5,0,0,0,0-3,1.5,1.5,0,0,0,0,3Z" transform="translate(-234.07 -46.07)"/><path class="cls-19" d="M664.37,342.08a1,1,0,0,0,0-2,1,1,0,0,0,0,2Z" transform="translate(-234.07 -46.07)"/><path class="cls-19" d="M678.31,653.28a1,1,0,0,0,0-2,1,1,0,0,0,0,2Z" transform="translate(-234.07 -46.07)"/><ellipse class="cls-19" cx="371.25" cy="159.51" rx="84.59" ry="84.6"/><ellipse class="cls-20" cx="371.25" cy="159.51" rx="119.14" ry="119.15"/><ellipse class="cls-21" cx="371.25" cy="159.51" rx="101.79" ry="101.8"/><ellipse class="cls-22" cx="371.25" cy="159.51" rx="141.39" ry="141.4"/><ellipse class="cls-22" cx="371.25" cy="159.51" rx="159.49" ry="159.51"/><path class="cls-23" d="M559.08,276.42A84.66,84.66,0,0,1,522.53,223l29.73,20.32Z" transform="translate(-234.07 -46.07)"/><path class="cls-24" d="M617.71,264.41l-25.79,24.7a84.22,84.22,0,0,1-32.84-12.69l-6.82-33.09Z" transform="translate(-234.07 -46.07)"/><path class="cls-25" d="M683.68,237.49a84.6,84.6,0,0,1-78.28,52.68,83.31,83.31,0,0,1-13.48-1.06l25.79-24.7Z" transform="translate(-234.07 -46.07)"/><path class="cls-23" d="M540.74,177.75l-20,27.91a84.19,84.19,0,0,1,16.88-50.81l0,0Z" transform="translate(-234.07 -46.07)"/><polygon class="cls-25" points="411.28 99.36 419.21 99.36 432.6 108.64 414.25 104.01 411.28 99.36"/><polygon class="cls-25" points="419.23 121.16 411.33 153.88 445.04 159.44 449.57 149.88 445.51 131.05 419.23 121.16"/><polygon class="cls-25" points="345.85 94.47 354.77 88.52 359.72 88.51 345.85 94.47"/><polygon class="cls-24" points="371.21 118.24 386.53 130.61 381.58 144 374.14 137.07 371.21 118.24"/><polygon class="cls-23" points="330.05 159.55 345.91 155.43 359.8 166.32 330.05 159.55"/><polygon class="cls-26" points="1150.52 703.01 1099.12 722.44 1022.57 731.57 959.73 713.29 914.03 716.72 945.74 703.01 965.44 683.59 1014.85 666.46 1077.78 677.87 1101.9 697.3 1150.52 703.01"/><polygon class="cls-23" points="1099.12 722.44 1022.57 731.57 959.73 713.29 914.03 716.72 963.92 703.01 1021.04 709.87 1036.86 720.53 1071.94 706.82 1099.12 722.44"/><polygon class="cls-24" points="1071.94 706.82 1150.52 703.01 1099.12 722.44 1071.94 706.82"/><polygon class="cls-24" points="945.74 703.01 963.92 703.01 914.03 716.72 945.74 703.01"/><polygon class="cls-25" points="1021.04 709.87 1061.41 697.3 1071.94 706.82 1036.86 720.53 1021.04 709.87"/><polygon class="cls-24" points="1101.9 697.3 1071.94 691.59 1092.7 689.88 1101.9 697.3"/><path class="cls-19" d="M542.41,244.52a1.5,1.5,0,0,0,0-3,1.5,1.5,0,0,0,0,3Z" transform="translate(-234.07 -46.07)"/><path class="cls-19" d="M584.8,446.6a1.5,1.5,0,0,0,0-3,1.5,1.5,0,0,0,0,3Z" transform="translate(-234.07 -46.07)"/><path class="cls-19" d="M444.89,462.15a1.5,1.5,0,0,0,0-3,1.5,1.5,0,0,0,0,3Z" transform="translate(-234.07 -46.07)"/><path class="cls-19" d="M859,127.22a1.5,1.5,0,0,0,0-3,1.5,1.5,0,0,0,0,3Z" transform="translate(-234.07 -46.07)"/><path class="cls-19" d="M688,514.44a1.5,1.5,0,0,0,0-3,1.5,1.5,0,0,0,0,3Z" transform="translate(-234.07 -46.07)"/><path class="cls-19" d="M582,224.23a1,1,0,0,0,0-2,1,1,0,0,0,0,2Z" transform="translate(-234.07 -46.07)"/><path class="cls-19" d="M549.47,419.25a1,1,0,0,0,0-2,1,1,0,0,0,0,2Z" transform="translate(-234.07 -46.07)"/><path class="cls-19" d="M464.68,547.86a1,1,0,0,0,0-2,1,1,0,0,0,0,2Z" transform="translate(-234.07 -46.07)"/><path class="cls-19" d="M709.16,576.12a1,1,0,0,0,0-2,1,1,0,0,0,0,2Z" transform="translate(-234.07 -46.07)"/><path class="cls-19" d="M686.55,138a1,1,0,0,0,0-2,1,1,0,0,0,0,2Z" transform="translate(-234.07 -46.07)"/><path class="cls-19" d="M651.09,218.8a1,1,0,0,0,0-2,1,1,0,0,0,0,2Z" transform="translate(-234.07 -46.07)"/><path class="cls-19" d="M492.94,399.47a1,1,0,0,0,0-2,1,1,0,0,0,0,2Z" transform="translate(-234.07 -46.07)"/><polygon class="cls-26" points="325.65 589.82 277.66 599.36 236 593.05 157.13 611.19 96.66 599.36 75.64 577.55 121.34 564.12 149.01 568.78 199.44 564.12 273.55 584.05 325.65 589.82"/><polygon class="cls-23" points="168.71 597.57 236 593.05 157.13 611.19 96.66 599.36 75.64 577.55 113.29 591.52 168.71 597.57"/><polygon class="cls-23" points="325.65 589.82 277.66 599.36 236 593.05 265.57 590.01 325.65 589.82"/><polygon class="cls-24" points="273.55 584.05 236 587.65 191.13 580.95 238.84 574.71 273.55 584.05"/><path class="cls-19" d="M827.15,345.76a1.5,1.5,0,0,0,0-3,1.5,1.5,0,0,0,0,3Z" transform="translate(-234.07 -46.07)"/><path class="cls-19" d="M637.11,534.84a1.5,1.5,0,0,0,0-3,1.5,1.5,0,0,0,0,3Z" transform="translate(-234.07 -46.07)"/><path class="cls-19" d="M784.15,687.56a1.5,1.5,0,0,0,0-3,1.5,1.5,0,0,0,0,3Z" transform="translate(-234.07 -46.07)"/><path class="cls-19" d="M886,656.22a1.5,1.5,0,0,0,0-3,1.5,1.5,0,0,0,0,3Z" transform="translate(-234.07 -46.07)"/><path class="cls-19" d="M918,706.42a1,1,0,0,0,0-2,1,1,0,0,0,0,2Z" transform="translate(-234.07 -46.07)"/><path class="cls-19" d="M617.5,430.85a1,1,0,0,0,0-2,1,1,0,0,0,0,2Z" transform="translate(-234.07 -46.07)"/><path class="cls-19" d="M784.75,354.44a1,1,0,0,0,0-2,1,1,0,0,0,0,2Z" transform="translate(-234.07 -46.07)"/><path class="cls-27" d="M854,941.66l-1.75,1.77-8.3,8.4-3.56,3.59-.81.82-6.32,6.39-.25,0-4.09.27-27.27,1.86-.54,0-4.56.32-22.88,1.56,20.39,11-21.29,4.7-32.33,7.12-.19,0L738,990l-5.27,1.16-16.31,3.6-36.48-5.72,1.48,7.81h0c-.19-.09-.37-.19-.56-.3l-.6-.32-4-2.17q-2.58-1.4-5.14-2.85c-1.7-1-3.39-1.92-5.09-2.91-1.52-.88-3-1.77-4.56-2.67l-.49-.3c-1.68-1-3.35-2-5-3s-3.33-2.05-5-3.09q-2.18-1.37-4.32-2.75-7.06-4.54-13.95-9.34L629.6,965l35.78-10.57-.75-51.89,8.38-3.42,14.27-5.79h0l.31-.13.21-.08.32-.13.32-.14,5.85-2.38,1.07-.44,11.31-4.57L742.33,871h0l0,0,40.85,38,10.57,9.84,2.42,2.25.26.25h0l0,0,4.28,1.51,7.57,2.66h0l6.26,2.21,35.91,12.66h0l.18.06.07,0h0Z" transform="translate(-234.07 -46.07)"/><path class="cls-28" d="M992.91,974.84,980,977.41,937.05,986l-1.69,29.14-9.31,1.64h0L867.57,1027l-6.4,1.12L851,1030l-5.58,1-4.41,4.82h0l-2.57,2.81,0,0-7.72,8.46c-1.48-.23-3-.48-4.42-.73l-2.19-.37c-1.5-.27-3-.54-4.5-.83s-3-.54-4.41-.84l-.41-.08c-1.47-.28-2.92-.57-4.36-.88q-3-.61-6-1.27c-1.51-.33-3-.68-4.51-1-.43-.09-.87-.19-1.29-.3-1.22-.26-2.41-.55-3.62-.85a1.74,1.74,0,0,1-.29-.07c-4.14-1-8.25-2-12.34-3.13l-3.54-1c-1.41-.38-2.8-.78-4.21-1.18-1.56-.44-3.13-.9-4.68-1.36l-4.39-1.34-3.81-1.18q-13.44-4.26-26.52-9.27c-1.86-.71-3.7-1.43-5.54-2.17-1.68-.66-3.37-1.34-5-2q-7.94-3.24-15.71-6.77c-1-.42-1.9-.86-2.84-1.29l-1.33-.63c-1.06-.49-2.12-1-3.18-1.49l-.26-.12,0,0h0c-2.12-1-4.23-2-6.34-3.05l-3.63-1.81c-3.3-1.66-6.59-3.37-9.85-5.1h0l-1.48-7.81,36.48,5.72,16.31-3.6L738,990l2.22-.48.19,0,32.33-7.12,21.29-4.7-20.39-11,22.88-1.56,4.56-.32.54,0,27.27-1.86,4.09-.27.25,0,6.32-6.39.81-.82,3.56-3.59,8.3-8.4,1.75-1.77,2.57.54h0l4.05.84.09,0,1.48.3h0l0,0,.8.17h0l66.42,13.89h0v0h0l1.3.27,21.13,5.83h0l19,5.23h0l6.69,1.84,6.56,1.81Z" transform="translate(-234.07 -46.07)"/><path class="cls-29" d="M927.94,996.13l-.7.15-9.34,1.93L865.72,1009h0l-3.45.71h0l-2.45.51h0l-2.53.53h0l-4.66,1-1.12.23-5.1,1.05-3.58-2.4-1.81-1.2-1.9-1.27-4.85-3.24h0l-3.77-2.52-3.33-2.23-5.36-3.59L805,999.89h0l-45,9.1-32.44-4.38,19.66,8.73-45.86-6.45,0,0h0c-2.12-1-4.23-2-6.34-3.05l-3.63-1.81c-3.3-1.66-6.59-3.37-9.85-5.1h0l-1.48-7.81,36.48,5.72,16.31-3.6L738,990l2.22-.48.19,0,32.33-7.12,21.29-4.7-20.39-11,22.88-1.56,4.56-.32.54,0,27.27-1.86,4.09-.27.25,0,6.32-6.39.81-.82,3.56-3.59,8.3-8.4,1.75-1.77,2.9,1.27,3.91,1.72,1.79.79,31,13.58L887,963.94h0l-2.3,1.73v0l-3.53,2.64L877,971.46l-14.85,11.18-.26.21-2.1,1.57-2.26,1.71,2.59-.6.37-.09,2.06-.48h0l23.26-5.38,32.43,12.74,9,3.54Z" transform="translate(-234.07 -46.07)"/><polygon class="cls-30" points="357.65 596.83 383.19 603.56 348.45 560.99 357.65 596.83"/><polygon class="cls-30" points="453.21 847.27 542.58 809.61 508.89 807.66 499.22 811.61 453.21 847.27"/><polygon class="cls-30" points="508.26 824.9 619.89 895.59 542.58 809.61 508.26 824.9"/><polygon class="cls-27" points="506.81 954.23 482.33 948.73 470.31 918.34 506.19 940.45 506.81 954.23"/><polygon class="cls-27" points="568.21 925.51 539.55 920.62 569.78 918.93 568.21 925.51"/><polygon class="cls-27" points="627.3 911.09 584.13 907.53 626.31 890.66 627.3 911.09"/><polygon class="cls-27" points="607.56 960.05 549.93 950.26 538.64 936.32 559.95 931.62 608.3 947.26 607.56 960.05"/><path class="cls-27" d="M935.8,1007.61l-.44,7.48-9.31,1.64h0L867.57,1027l-6.4,1.12L851,1030l-5.58,1-4.41,4.82h0l-2.57,2.81,0,0-7.72,8.46c-1.48-.23-3-.48-4.42-.73l-2.19-.37,1.92-2,11.16-11.38,2.17-2.21,6.11-6.23,4.76-.88,3.68-.67,2.34-.44h0l6.68-1.23,2.76-.5,51.5-9.45,9.32-1.71Z" transform="translate(-234.07 -46.07)"/><polygon class="cls-27" points="758.84 928.78 702.98 939.88 703.28 934.59 750.13 926.38 758.84 928.78"/><polygon class="cls-31" points="503.6 954.05 483.83 918.48 502.87 875.92 515.68 903.5 503.6 954.05"/><polygon class="cls-32" points="505.27 947.04 488.26 908.57 483.83 918.48 503.6 954.05 505.27 947.04"/><polygon class="cls-33" points="490.78 914.27 505.02 880.56 502.87 875.92 488.26 908.57 490.78 914.27"/><polygon class="cls-34" points="498.45 884.51 513.51 912.61 515.68 903.5 502.87 875.92 498.45 884.51"/><polygon class="cls-31" points="565.94 925.38 549.45 895.72 565.33 860.24 576.01 883.24 565.94 925.38"/><polygon class="cls-32" points="567.34 919.53 553.15 887.46 549.45 895.72 565.94 925.38 567.34 919.53"/><polygon class="cls-33" points="555.25 892.21 567.13 864.11 565.33 860.24 553.15 887.46 555.25 892.21"/><polygon class="cls-34" points="561.64 867.4 574.2 890.83 576.01 883.24 565.33 860.24 561.64 867.4"/><polygon class="cls-31" points="605.31 959.92 588.81 930.23 604.7 894.72 615.4 917.74 605.31 959.92"/><polygon class="cls-32" points="606.71 954.07 592.51 921.96 588.81 930.23 605.31 959.92 606.71 954.07"/><polygon class="cls-33" points="594.61 926.72 606.5 898.59 604.7 894.72 592.51 921.96 594.61 926.72"/><polygon class="cls-34" points="601.01 901.88 613.58 925.33 615.4 917.74 604.7 894.72 601.01 901.88"/><polygon class="cls-31" points="625.7 911 611.9 886.16 625.19 856.45 634.14 875.71 625.7 911"/><polygon class="cls-32" points="626.87 906.1 614.99 879.24 611.9 886.16 625.7 911 626.87 906.1"/><polygon class="cls-33" points="616.75 883.22 626.7 859.69 625.19 856.45 614.99 879.24 616.75 883.22"/><polygon class="cls-34" points="622.1 862.45 632.62 882.06 634.14 875.71 625.19 856.45 622.1 862.45"/><polygon class="cls-35" points="659.45 912.95 750.13 926.38 696.72 911.67 628.1 897.31 659.45 912.95"/><path class="cls-31" d="M1027.58,1014.42l-.14.62-1.2,5-3.56,14.89h0l-1.27,5.28-.21.92h0l0,.1-.37-.84,0,0c-1,.26-2.08.5-3.12.73l-2.51-4.53-1.58-2.82-5.6-10.09,1.53-3.43,1.2-2.67.74-1.65,1.51-3.41h0l4.2-9.37.51-1.15.73-1.62h0l1.29-2.88.17.39,1.16,2.47.42.89,1,2.21,3.82,8.2Z" transform="translate(-234.07 -46.07)"/><path class="cls-32" d="M1020.78,1040.35c-1,.26-2.08.5-3.12.73l-2.51-4.53-1.58-2.82-5.6-10.09,1.53-3.43,1.2-2.67.74,1.68.81,1.83,3.33,7.55.15.32,1.35,3Z" transform="translate(-234.07 -46.07)"/><polygon class="cls-33" points="778.18 974.98 786.95 954.23 785.62 951.37 776.63 971.47 778.18 974.98"/><polygon class="cls-34" points="782.9 956.66 792.17 973.96 793.51 968.35 785.62 951.37 782.9 956.66"/><polygon class="cls-31" points="762.43 987.22 750.26 965.32 761.98 939.12 769.87 956.11 762.43 987.22"/><polygon class="cls-32" points="763.46 982.91 752.99 959.22 750.26 965.32 762.43 987.22 763.46 982.91"/><polygon class="cls-33" points="754.54 962.73 763.31 941.98 761.98 939.12 752.99 959.22 754.54 962.73"/><polygon class="cls-34" points="759.26 944.41 768.53 961.71 769.87 956.11 761.98 939.12 759.26 944.41"/><path class="cls-31" d="M1002.48,1024.32l-1.34,5.61-.5,2.07-1.56,6.51-1.61,6.76c-1.22.24-2.46.46-3.69.68l-3.67.64L983,1033.7l-.09-.16,2.73-6.1,0,0,3.39-7.61,1.23-2.72h0l1-2.29h0l.8-1.8,2.53-5.65,1.32,2.85,4,8.68.77,1.67Z" transform="translate(-234.07 -46.07)"/><path class="cls-32" d="M993.78,1046l-3.67.64L983,1033.7l-.09-.16,2.73-6.1,3.59,8.12Z" transform="translate(-234.07 -46.07)"/><polygon class="cls-33" points="753.08 984.88 761.85 964.13 760.52 961.27 751.52 981.37 753.08 984.88"/><polygon class="cls-34" points="757.8 966.55 767.07 983.85 768.41 978.25 760.52 961.27 757.8 966.55"/><polygon class="cls-31" points="775.39 996.83 775.41 996.83 774.7 998.39 775.39 996.83"/><path class="cls-31" d="M1024.76,1039.4l-3.35.8-.21.92h0l0,.1-.37-.84,0,0c-1,.26-2.08.5-3.12.73a7.12,7.12,0,0,1-.74.17l-2.25.51c-.63.15-1.26.29-1.9.41l-.24.59-.36-.45-2.7.59,1.16-2.59,2.94-6.58,1.67-3.72.49-1.09,2-4.56,1.33,2.85,3.58,7.7h0Z" transform="translate(-234.07 -46.07)"/><path class="cls-33" d="M1019.1,1027.21l-2,4.76-.35.83-1.58,3.75-2.38,5.62-.24.59-.36-.45-2.7.59,1.16-2.59,2.94-6.58,1.67-3.72.49-1.09,2-4.56Z" transform="translate(-234.07 -46.07)"/><path class="cls-34" d="M1024.76,1039.4l-3.35.8-.21.92-.4-.73,0,0-4-7.55-1.49-2.79-.2-.37.54-1,2.19-4.24,1.33,2.85,3.58,7.7h0Z" transform="translate(-234.07 -46.07)"/><polygon class="cls-36" points="879.64 964.37 879.72 965.05 879.54 965 879.64 964.37"/><polygon class="cls-27" points="879.64 964.37 879.72 965.05 879.54 965 879.64 964.37"/><polygon class="cls-27" points="879.72 965.05 879.54 965 879.64 964.37 879.72 965.05"/><polygon class="cls-27" points="763.09 918.93 806.38 920.37 766.43 898.75 763.09 918.93"/><path class="cls-27" d="M1012.17,1042.31l-2.7.59-.7,1.56.69-1.56c-.86.18-1.72.36-2.57.52l-2.38-3.29-5.43-1.62-9.9-3L983,1033.7l-56.9-17h0L917,1014l.43-7.48,9.07,2.77,9.06,2.78,50.07,15.31,2.69.82,6.48,2h0l2.26.7,3.58,1.09,4.63,1.42,5.36,6.89Z" transform="translate(-234.07 -46.07)"/><polygon class="cls-27" points="630.39 921.36 684.6 938.82 684.91 933.52 639.31 919.98 630.39 921.36"/><polygon class="cls-31" points="822.4 940.19 842.19 912.62 830.5 875.55 817.24 897.17 822.4 940.19"/><polygon class="cls-32" points="821.68 934.22 839.47 903.99 842.19 912.62 822.4 940.19 821.68 934.22"/><polygon class="cls-33" points="836.83 908.47 828.27 879.19 830.5 875.55 839.47 903.99 836.83 908.47"/><polygon class="cls-34" points="833.34 883.09 818.17 904.91 817.24 897.17 830.5 875.55 833.34 883.09"/><polygon class="cls-31" points="779.31 969.97 799.12 942.38 787.42 905.27 774.15 926.91 779.31 969.97"/><polygon class="cls-32" points="778.59 964 796.4 933.74 799.12 942.38 779.31 969.97 778.59 964"/><polygon class="cls-33" points="793.76 938.22 785.19 908.91 787.42 905.27 796.4 933.74 793.76 938.22"/><polygon class="cls-34" points="790.26 912.81 775.08 934.66 774.15 926.91 787.42 905.27 790.26 912.81"/><polygon class="cls-31" points="764.69 919.02 781.26 895.94 771.47 864.9 760.37 883 764.69 919.02"/><polygon class="cls-32" points="764.09 914.03 778.98 888.71 781.26 895.94 764.69 919.02 764.09 914.03"/><polygon class="cls-33" points="776.77 892.46 769.6 867.94 771.47 864.9 778.98 888.71 776.77 892.46"/><polygon class="cls-34" points="773.85 871.21 761.14 889.49 760.37 883 771.47 864.9 773.85 871.21"/><polygon class="cls-35" points="730.94 917.08 639.31 919.98 694.06 911.51 763.88 905.15 730.94 917.08"/><polygon class="cls-31" points="595.2 988.45 609.81 968.09 601.18 940.72 591.39 956.68 595.2 988.45"/><polygon class="cls-32" points="594.67 984.04 607.8 961.72 609.81 968.09 595.2 988.45 594.67 984.04"/><polygon class="cls-33" points="605.85 965.03 599.53 943.4 601.18 940.72 607.8 961.72 605.85 965.03"/><polygon class="cls-34" points="603.27 946.28 592.07 962.4 591.39 956.68 601.18 940.72 603.27 946.28"/><polygon class="cls-31" points="620.09 979 634.7 958.65 626.07 931.27 616.28 947.23 620.09 979"/><polygon class="cls-32" points="619.56 974.6 632.69 952.27 634.7 958.65 620.09 979 619.56 974.6"/><polygon class="cls-33" points="630.75 955.58 624.42 933.96 626.07 931.27 632.69 952.27 630.75 955.58"/><polygon class="cls-34" points="628.17 936.84 616.97 952.96 616.28 947.23 626.07 931.27 628.17 936.84"/><polygon class="cls-31" points="618.99 1001.17 633.61 980.82 624.98 953.44 615.18 969.4 618.99 1001.17"/><polygon class="cls-32" points="618.47 996.76 631.6 974.44 633.61 980.82 618.99 1001.17 618.47 996.76"/><polygon class="cls-33" points="629.65 977.75 623.33 956.13 624.98 953.44 631.6 974.44 629.65 977.75"/><polygon class="cls-34" points="627.07 959 615.87 975.12 615.18 969.4 624.98 953.44 627.07 959"/><path class="cls-31" d="M842.69,1041.13l-5,7h0c-1.5-.2-3-.44-4.46-.66-.84-.13-1.68-.26-2.51-.41-1.48-.23-3-.48-4.42-.73L826,1044l-1-8.58-.68-5.72,3.69-6,4.44-7.26,1.65-2.68,1.5,4.77.36,1.13,1.23,3.89,2.17,6.88,1.36,4.33.32,1h0Z" transform="translate(-234.07 -46.07)"/><path class="cls-32" d="M842.69,1041.13l-5,7h0c-1.5-.2-3-.44-4.46-.66l5.21-8.87,0,0,.31-.52h0l1.94-3.3.32,1h0Z" transform="translate(-234.07 -46.07)"/><polygon class="cls-33" points="604.67 991.99 598.35 970.37 599.99 967.68 606.61 988.68 604.67 991.99"/><polygon class="cls-34" points="602.09 973.25 590.89 989.37 590.2 983.64 599.99 967.68 602.09 973.25"/><path class="cls-37" d="M1079.72,690.41C1047.71,676.24,991,596.35,972,568c-3.69-5.5-6-9.06-6.36-9.83s-2.58-2.72-6.18-5.69c-15.06-12.38-54.54-41.7-87.46-65.88L864.29,481l-5-3.68c-8.9-6.53-16.9-12.37-23.22-17l-11.18-8.13-3.49-2.55L854,419.37s28.13-7.32,65.38-3.82c5.73.53,11.67,1.32,17.77,2.44h0c.86.16,1.71.32,2.58.5q5,1,10.07,2.26l.32.08c1.29.33,2.58.67,3.88,1,5.65,1.57,11.36,3.46,17.09,5.68.93.36,1.86.76,2.79,1.16,8.89,3.92,18.09,10.08,27.33,18,2.41,2.08,4.82,4.29,7.22,6.6,23,22.08,45.49,54.53,62.74,90.14l-1.05.08-19.18,1.56-13.2,1.06c5,5.22,9.77,10.36,14.35,15.36,5.77,6.26,11.18,12.28,16.11,17.88,8,19.28,12.95,38.41,14.07,55.18C1083.14,648,1082.62,667.33,1079.72,690.41Z" transform="translate(-234.07 -46.07)"/><path class="cls-38" d="M825,453.5l120.6,7-19,328.9s-143.11,44.29-204.81-30.16-39.13-211.26-39-213.7,80.59-83.35,80.59-83.35Z" transform="translate(-234.07 -46.07)"/><path class="cls-39" d="M730.1,520.32s-4.37,12.39,1.37,18.83-15,26,12.23,42.26-35.12-5.69-33.83-6.84-4.48-35-4.48-35Z" transform="translate(-234.07 -46.07)"/><path class="cls-37" d="M875.2,313,857,346.34l-.13.22-.08-.93-.88-10.5-.49-5.76-25.69-24.5,16.1-25.08,2.94-4.58,1.32,1.05,21.2,17.08A15.62,15.62,0,0,1,875.2,313Z" transform="translate(-234.07 -46.07)"/><path class="cls-39" d="M757.62,467.33s-27.83,37.5-30.88,69.11-34.6,6.55-34.6,6.55l36.47-67.65Z" transform="translate(-234.07 -46.07)"/><path class="cls-40" d="M875.2,313,857,346.34l-.21-.71-2.44-8.38s.6-.78,1.56-2.12c4.45-6.19,16.86-24.23,16.32-32.29-.65-9.82-26.4-23-26.4-23a53.85,53.85,0,0,1,4.26-3.53l21.2,17.08A15.62,15.62,0,0,1,875.2,313Z" transform="translate(-234.07 -46.07)"/><path class="cls-41" d="M757.62,467.33s-21.11,26.89-27.25,48.54-7.12,38.7-22.39,28,13.56-44.44,13.56-44.44Z" transform="translate(-234.07 -46.07)"/><path class="cls-42" d="M757,467.9s-23.76,30.41-30.11,55.71-19.45,27.9-27.47,3.76,25.34-67.44,56.35-77.87Z" transform="translate(-234.07 -46.07)"/><path class="cls-37" d="M721.49,519.82s5.42-28.6,19.87-46.1,29.5-24,29.5-24-18.49,2.6-35.31,18.74-31.19,32.84-30.44,40.62S721.49,519.82,721.49,519.82Z" transform="translate(-234.07 -46.07)"/><path class="cls-43" d="M719.22,524.69c-4.56,7.23-12,9.51-16.7,5.09s-4.77-13.85-.22-21.08a16,16,0,0,1,7.8-6.74,8.36,8.36,0,0,1,8.9,1.65C723.67,508,723.77,517.47,719.22,524.69Z" transform="translate(-234.07 -46.07)"/><path class="cls-44" d="M719.22,524.69c-10.77,11.76-16.85-1-15.38-10.51s6.25-12.2,6.25-12.2v0a8.36,8.36,0,0,1,8.9,1.65C723.67,508,723.77,517.47,719.22,524.69Z" transform="translate(-234.07 -46.07)"/><path class="cls-45" d="M717.41,515.1c.85.8,2.2.39,3-.92a3.86,3.86,0,0,0,.55-2.69,2.16,2.16,0,0,0-.59-1.14c-.85-.8-2.2-.38-3,.93S716.57,514.3,717.41,515.1Z" transform="translate(-234.07 -46.07)"/><path class="cls-45" d="M712.94,512.44c.55.52,1.43.25,2-.6a2.39,2.39,0,0,0,.35-1.73,1.34,1.34,0,0,0-.37-.74c-.55-.51-1.43-.25-2,.6A2.08,2.08,0,0,0,712.94,512.44Z" transform="translate(-234.07 -46.07)"/><path class="cls-46" d="M860.59,409.11c-.21,3.65-26.47,35.14-29.05,37.43a17.79,17.79,0,0,1-6.3,3.31L825,453.5s-1.77,3.17-4.77,8.28c-7.2,12.26-21.49,35.65-35.43,53-19.75,24.53-45.69,29.14-53.51,16.47S757,467.9,757,467.9L753,409l-10.22-12.34-14.75-20.88-1.31-19.63L759,348.24l68-41.73,3-1.84,25.46,24.7,2.79,14.75S860.8,405.46,860.59,409.11Z" transform="translate(-234.07 -46.07)"/><path class="cls-47" d="M860.59,409.11c-.21,3.65-26.47,35.14-29.05,37.43a17.79,17.79,0,0,1-6.3,3.31l0,.61-21.32-1.24-14.71-14.14c.67.54,11.44,9.1,14.92,10.49s18.2,2.27,21.37.24,21.66-25.87,27-32.89,2.93-8.39,1.9-32.89-2.13-47.79-2.13-47.79L827,306.51l3-1.84,25.46,24.7,2.79,14.75S860.8,405.46,860.59,409.11Z" transform="translate(-234.07 -46.07)"/><path class="cls-48" d="M825.24,449.85,825,453.5s-1.77,3.17-4.77,8.28l-16.43-.95L772,419.88l32.56,28.77Z" transform="translate(-234.07 -46.07)"/><path class="cls-49" d="M846.43,294.63l-87.38,53.58,0,0h0l8.22,48.14S765,392.59,758.39,380s-19-30.44-24.74-16.1c-3.16,7.91,1.7,18.88,6.68,27.14a103.09,103.09,0,0,0,8.09,11.49c-1.81-1.85-26.84-27.69-37.7-43.62C699.45,342.36,730,322.12,730,322.12l-.07,0A175.67,175.67,0,0,1,696,296.94a15.79,15.79,0,0,1-1.29-1.41c-10-12.56,36.54-10.09,45.63-9.49,1,0,1.51.1,1.51.1s-19.33-17.58-27.36-30.28h0s0,0,0,0l-.68-1.11,0-.07a30,30,0,0,1-1.69-3.24c-5.15-12,54.2,1,59.4,2.15l.36.08s-5.52-10.1-13.28-24a84.57,84.57,0,0,1-4.62-9.62v0c-4.44-11-5-20.92,6.24-18.38,14.48,3.28,86,56.3,92.51,70.12S846.43,294.63,846.43,294.63Z" transform="translate(-234.07 -46.07)"/><polygon class="cls-50" points="603.03 769.91 555.5 786.89 547.8 789.65 488.21 810.94 476.6 787.92 470.14 775.12 298.36 434.73 279.84 398.02 279.91 389.94 281.25 253.17 281.32 245.33 408.94 328.01 409.74 328.52 518.08 575.92 603.03 769.91"/><polygon class="cls-51" points="547.34 686.64 393.07 352.62 359.52 340.9 550.77 754.06 547.34 686.64"/><polygon class="cls-51" points="540.75 758.37 355.25 375.77 321.64 361.93 517.66 784.44 543.18 758.51 540.75 758.37"/><polygon class="cls-51" points="490.32 774.4 476.6 787.92 279.84 398.02 279.91 389.94 307.2 389.82 490.32 774.4"/><polygon class="cls-46" points="393.71 352.04 353.52 349.72 355.48 379.17 350.78 377.55 325.52 368.88 312.73 399.92 279.84 398.02 280.66 313.57 281.14 264.33 281.32 245.33 337.02 281.42 408.94 328.01 393.71 352.04"/><path class="cls-52" d="M571.09,327.49a50.34,50.34,0,0,1-3.24,10.67c-3.53,8.2-9.68,15.9-19.64,19.91-11.06,4.44-23.81,3.5-33.48,1.57l.63-64.51,0-3.73Z" transform="translate(-234.07 -46.07)"/><path class="cls-51" d="M789.57,833c-1.3,2.44-2.11,3.8-2.11,3.8l-5.59-1-77.66-14.54L532.43,480.8c22.89-11.73,59.74-16.74,92.48,41.2,52.11,92.23,33.51,118,119.2,179.22C827,760.42,800.3,812.85,789.57,833Z" transform="translate(-234.07 -46.07)"/><path class="cls-53" d="M629.87,673.89s-.94.18-2.56.37c-7.06.82-27.11,1.85-39.3-10.78-15-15.53-20.42-69.62-20.42-69.62l2.36.34,2,.29,19.21,2.76,15.1,29.93Z" transform="translate(-234.07 -46.07)"/><path class="cls-54" d="M629.87,673.89s-.94.18-2.56.37a56.8,56.8,0,0,1-15.1-4.76c-27-12.17-39.83-64.27-42.26-75.3-.29-1.34-.43-2.07-.43-2.07l2.47,2.36,34.31,32.69Z" transform="translate(-234.07 -46.07)"/><path class="cls-55" d="M921.92,807.43s0,.29-.11.84c-.92,6.37-7.38,48-25.86,83h0c-7.46,14.13-16.86,27.18-28.64,36.42-43.53,34.15-172.26,62.16-172.26,62.16l-3.09,53.6s-.06,1-1.93,3.26a38.18,38.18,0,0,1-4.62,4.57c-3.95,3.36-10.26,7.91-20.37,13.84-26.57,15.58-127.91-7.39-127.91-7.39s6.92-98.6,16.76-142S771.56,785,771.56,785l89.83,13.4,34.07,5.08,19.82,3,6,.89Z" transform="translate(-234.07 -46.07)"/><rect class="cls-46" x="589.19" y="560.54" width="22.89" height="63.53" rx="7.84" transform="translate(520.77 1375.57) rotate(-145.13)"/><path class="cls-37" d="M896,891.29h0c-7.46,14.13-16.86,27.18-28.64,36.42-43.53,34.15-172.26,62.16-172.26,62.16l-3.09,53.6s-.14,2.34-6.55,7.83L613.16,1064s35.66-24.83,38.26-69.9-4.42-50.37,72.51-70.37S878.22,812.85,878.22,812.85l17.24-9.37,18.84-10.24s1.09,4.15,1,13.2C915.11,821,911.84,848.23,896,891.29Z" transform="translate(-234.07 -46.07)"/><rect class="cls-46" x="600.03" y="584.39" width="22.89" height="63.53" rx="7.84" transform="translate(526.88 1425.19) rotate(-145.13)"/><path class="cls-56" d="M1115.68,881c-6,15.85-13.73,35.1-22.88,55.83v0c-41.25,93.5-111.86,217.15-189.59,194.66-3.09-.89-6.07-1.76-9-2.58-9.77-2.82-18.47-5.26-26.42-7.39-12.28-3.29-22.78-5.82-32.73-7.68-28.2-5.27-52-5.26-99.15-2.51q-8,.46-16.91,1h-.18c-16.76,1.06-36.21,2.36-59.21,3.83-138.16,8.8-168.76-70.43-172.94-83.87h0c-.13-.39-.22-.72-.3-1-.17-.59-.25-.92-.25-.92,2.16.4,4.3.78,6.45,1.13l0,0c288,48.54,406.52-210.95,406.52-210.95l35.4-2.86,28.3-2.29,86.28-7,5-.4.88-.07h0l22.28-1.81,6.78-.55,1.95-.15,14.94-1.22,6.1-.49a15.3,15.3,0,0,0,13.91-13,0,0,0,0,0,0-.06,13.45,13.45,0,0,0,.16-2.54c0-.31,0-.63,0-.94l-13.87-171.42-3-37.17C1146.34,684.81,1141.46,813.06,1115.68,881Z" transform="translate(-234.07 -46.07)"/><path class="cls-57" d="M1101,804.23c-5.66,51.67-19.47,115.43-51.38,172.52-52.18,93.37-124.4,136.87-155.39,152.13-9.77-2.82-18.47-5.26-26.42-7.39-12.28-3.29-22.78-5.82-32.73-7.68,29.6-21.83,72.54-54.07,129.18-98,65.82-51,101.24-140.06,119.85-210.22,15.38-58.06,19.25-103.19,19.25-103.19S1107.45,745.52,1101,804.23Z" transform="translate(-234.07 -46.07)"/><path class="cls-51" d="M921.81,808.27c-.92,6.37-7.38,48-25.86,83h0c-7.46,14.13-16.86,27.18-28.64,36.42-43.53,34.15-172.26,62.16-172.26,62.16l-3.09,53.6s-.06,1-1.93,3.26c-44,4.36-129,11.39-98.38-2.93,40.75-19,37.47-65.68,38.52-83.95s16.45-30.83,89.73-51S861.39,798.4,861.39,798.4l35.85-18.67s13.93,9.23,24,27.6C921.47,807.65,921.64,808,921.81,808.27Z" transform="translate(-234.07 -46.07)"/><path class="cls-49" d="M1086.08,805.45c-17.21,92-68.12,235.1-218.25,316-51-13.67-71.36-14-148.79-9.16,4.92-.53,111.41-13.19,242.47-133.34,65.61-60.13,98.92-123.63,115.84-172.84,16.63-48.39,17.42-83,17.45-86.92C1094.87,723.16,1095.09,757.31,1086.08,805.45Z" transform="translate(-234.07 -46.07)"/><path class="cls-49" d="M962.85,815.42C917.44,907.21,822,1056,680.72,1055c-116-.83-169.59-13.18-194.31-23.7-.17-.59-.25-.92-.25-.92,292.68,53.57,413-209.8,413-209.8Z" transform="translate(-234.07 -46.07)"/><path class="cls-57" d="M996.55,774.46s-74.37,219.67-254.91,271.43c0,0,161.07-43.4,237.85-272.41S996.55,774.46,996.55,774.46Z" transform="translate(-234.07 -46.07)"/><rect class="cls-46" x="612.24" y="605.87" width="22.89" height="63.53" rx="7.84" transform="translate(536.82 1471.27) rotate(-145.13)"/><path class="cls-58" d="M789.54,522.32s-4.61,22.36-28,25.9-45.86,27-28.46,48.47,158.47-18.11,158.47-18.11-35-67.65-32.69-85.85S789.54,522.32,789.54,522.32Z" transform="translate(-234.07 -46.07)"/><path class="cls-46" d="M600.19,573.51,576.84,607a11.33,11.33,0,0,1-10.29,4.81,11.2,11.2,0,0,1-5.49-2l-.18-.14a11.34,11.34,0,0,1-2.82-15.78l23.35-33.51a11.35,11.35,0,0,1,15.79-2.83l.17.12a11.4,11.4,0,0,1,4.17,5.44A11.27,11.27,0,0,1,600.19,573.51Z" transform="translate(-234.07 -46.07)"/><path class="cls-59" d="M753.23,649.19,633,390,515.32,299.24l.07-7.84L643,374.08l.8.51L752.15,622C753.31,637.32,753.23,649.19,753.23,649.19Z" transform="translate(-234.07 -46.07)"/><path class="cls-60" d="M832.84,508.74S854,534,804.49,608.15,953,703.5,953,703.5L899.27,533S858.87,449.54,832.84,508.74Z" transform="translate(-234.07 -46.07)"/><path class="cls-51" d="M1105.43,820.76,746.7,843c-8.7.54-16.38-5.12-17.14-12.63l-5.51-53.59L708.37,624.34c-.77-7.51,5.65-14.05,14.34-14.59l358.74-22.25c8.69-.54,16.37,5.12,17.15,12.64l3.88,37.84,17.3,168.19C1120.56,813.7,1114.14,820.23,1105.43,820.76Z" transform="translate(-234.07 -46.07)"/><path class="cls-57" d="M1034,776.13S967.49,939,852.21,1009.35s-79.33,61.42-39.36,46.61S1077.2,880.56,1073.57,774,1034,776.13,1034,776.13Z" transform="translate(-234.07 -46.07)"/><path class="cls-61" d="M1107.12,803.74l-1.7.13-346,28a15.31,15.31,0,0,1-16.5-14l-4.86-60.07L724.22,586.9a15.31,15.31,0,0,1,14-16.5l59.55-4.82h0L1086,542.26a15.3,15.3,0,0,1,16.49,14l3.43,42.41,15.27,188.54A15.3,15.3,0,0,1,1107.12,803.74Z" transform="translate(-234.07 -46.07)"/><path class="cls-62" d="M1107.12,803.74,759.41,831.89a15.31,15.31,0,0,1-16.5-14l-4.86-60.07,367.83-159.1,15.27,188.54A15.3,15.3,0,0,1,1107.12,803.74Z" transform="translate(-234.07 -46.07)"/><circle class="cls-63" cx="531.11" cy="653.76" r="20.58"/><polygon class="cls-37" points="866.31 741.7 601.13 763.16 570.77 765.61 565.33 698.3 563.49 675.52 560.25 635.52 552.26 536.97 847.8 513.04 848.31 519.39 851.41 557.62 853.25 580.36 859.28 654.81 866.31 741.7"/><circle class="cls-64" cx="531.11" cy="653.76" r="17.08"/><rect class="cls-37" x="739.93" y="595.22" width="34.17" height="7.32" transform="translate(-279.92 16.97) rotate(-4.63)"/><rect class="cls-37" x="741.5" y="614.68" width="34.17" height="7.32" transform="translate(-281.49 17.16) rotate(-4.63)"/><rect class="cls-37" x="743.08" y="634.14" width="34.17" height="7.32" transform="translate(-283.05 17.35) rotate(-4.63)"/><rect class="cls-37" x="744.65" y="653.6" width="34.17" height="7.32" transform="translate(-284.62 17.54) rotate(-4.63)"/><rect class="cls-37" x="751.54" y="738.73" width="34.17" height="7.32" transform="translate(-291.46 18.37) rotate(-4.63)"/><rect class="cls-37" x="753.12" y="758.19" width="34.17" height="7.32" transform="translate(-293.03 18.56) rotate(-4.63)"/><rect class="cls-37" x="754.69" y="777.65" width="34.17" height="7.32" transform="translate(-294.59 18.75) rotate(-4.63)"/><rect class="cls-37" x="756.27" y="797.11" width="34.17" height="7.32" transform="translate(-296.16 18.94) rotate(-4.63)"/><g class="cls-65"><polygon class="cls-19" points="848.31 519.39 560.25 635.52 563.49 675.52 851.41 557.62 848.31 519.39"/><path class="cls-19" d="M1087.32,626.43,799.39,744.36l5.45,67.32,30.36-2.45c30.89-20.2,67.51-48.86,90.79-82.84,29.5-43.06,111.16-36.32,167.36-25.51Z" transform="translate(-234.07 -46.07)"/></g><path class="cls-46" d="M1055.46,791.31c-6.65,23-19.65,41.51-31,49.66-.23.15-.45.31-.66.46-11.46,7.89-15.11,7.68-28.51,6.91s-18.42,1.38-31.67-1.83a18,18,0,0,1-4.06-1.57h0c-12.31-6.33-26.24-26.45-26.67-27.07v0L968.36,815l4.44-.37c-7.29.46-29.18,1.19-33.82-6.19-5.6-8.88,47.48-18,47.48-18l12.89-11.48S1063.1,764.86,1055.46,791.31Z" transform="translate(-234.07 -46.07)"/><path class="cls-66" d="M1107.12,803.74l-1.7.13c16.5-29.67-11.66-252.35-11.66-252.35s-121.44,7.65-196.24,11.89c-73.43,4.16-98.8,2.25-99.72,2.17L1086,542.26a15.3,15.3,0,0,1,16.49,14l3.43,42.41,15.27,188.54A15.3,15.3,0,0,1,1107.12,803.74Z" transform="translate(-234.07 -46.07)"/><path class="cls-67" d="M999.92,779.55s3.53,23.53,25.11,30.83,32.1-5.53,32.1-5.53l-47.77-40.65Z" transform="translate(-234.07 -46.07)"/><path class="cls-68" d="M1049,809.45l.5-.22,0,.07Z" transform="translate(-234.07 -46.07)"/><path class="cls-69" d="M1049.5,809.23l-.11-.27C1049.85,809,1049.73,809.1,1049.5,809.23Z" transform="translate(-234.07 -46.07)"/><path class="cls-70" d="M1079.72,690.41a482.26,482.26,0,0,1-24.14,101q-3,8.48-6.45,17l.26.53a3.93,3.93,0,0,0-.47,0,37.93,37.93,0,0,1-5.51-.07h0c-13.62-1.08-24-7.41-31.22-14a67,67,0,0,1-8.44-9.29h0a52.73,52.73,0,0,1-4.37-6.71l6.19-107.2s-68.89-44.92-116.11-95.31L884.89,570A104.76,104.76,0,0,1,875,554.29c-5.77-11.3-10.72-20.92-13.7-30-2.82-8.55-3.88-16.6-2.23-25.1a111.25,111.25,0,0,1,5.2-18.26,121.73,121.73,0,0,1,5-11.39c1.13-2.27,2.23-4.27,3.21-6a77.55,77.55,0,0,1,4.5-7.07s17.14-9.79,42.37-8.63c1.64.07,3.3.19,5,.37,4.69.47,12.42,4.94,22.06,12.15q2.11,1.56,4.34,3.32c7.59,5.93,16.17,13.3,25.27,21.55,19.72,17.89,41.86,40,61.71,60.9,5,5.22,9.77,10.36,14.35,15.36,5.77,6.26,11.18,12.28,16.11,17.88,8,19.28,12.95,38.41,14.07,55.18C1083.14,648,1082.62,667.33,1079.72,690.41Z" transform="translate(-234.07 -46.07)"/><path class="cls-71" d="M1003.73,785.62h0a52.73,52.73,0,0,1-4.37-6.71l6.19-107.2s-68.89-44.92-116.11-95.31L884.89,570A104.76,104.76,0,0,1,875,554.29c-11.23-22-19.33-37.59-15.93-55.08a111.25,111.25,0,0,1,5.2-18.26,121.73,121.73,0,0,1,5-11.39A95.07,95.07,0,0,1,877,456.5s19.43-11.1,47.37-8.26c4.69.47,12.42,4.94,22.06,12.15q2.11,1.56,4.34,3.32c-25.71-2.81-57.6,1.29-56.58,39.21,1.7,63.27,122.67,132.16,116.53,153.8S1003.73,785.62,1003.73,785.62Z" transform="translate(-234.07 -46.07)"/><path class="cls-72" d="M1005.49,672.52l0-.82s-68.89-44.92-116.11-95.31L884.89,570A104.76,104.76,0,0,1,875,554.29c-11.23-22-19.33-37.59-15.93-55.08a111.25,111.25,0,0,1,5.2-18.26,121.73,121.73,0,0,1,5-11.39,45.68,45.68,0,0,1,33.63-2.68s-37.27,14-4,73.38,106.89,117.4,106.89,117.4A36.45,36.45,0,0,1,1005.49,672.52Z" transform="translate(-234.07 -46.07)"/><path class="cls-39" d="M976,485.26c-45.85-29.77-89.7,7.24-114.68,39q-2.48,3.13-4.68,6.18c-23.9,32.85-46,34-62.6,25.72s-3.1-47.38-3.1-47.38,40.23-26.83,81.52-45.26c16.26-7.25,32.67-13.2,46.87-15.7,1.64.07,3.3.19,5,.37,4.69.47,12.42,4.94,22.06,12.15q2.11,1.56,4.34,3.32C958.32,469.64,966.9,477,976,485.26Z" transform="translate(-234.07 -46.07)"/><path class="cls-73" d="M786.94,526.66s-4,31.35,25.66,25.73,46.86-69.11,97.72-82.82,68.48,1.37,68.48,1.37-36.42-28.38-77-24.61-114.78,77.86-114.78,77.86Z" transform="translate(-234.07 -46.07)"/><path class="cls-74" d="M1087.43,542.22a14.43,14.43,0,0,0-1.47,0l-7.14.58-7.68.62-1.05.08-19.18,1.56c-25.68-43-64.18-80-104.52-84.71a73.84,73.84,0,0,0-10.51-.49c-26.82.71-47.33,12.23-63.87,26.71-4.6,4-8.89,8.29-12.92,12.6-9.76,10.47-18,21.3-25.44,30.13v0c-8.23,9.76-15.44,17-22.62,18.66-26,5.84-24.74-16.09-24.74-16.09,3.91-38.6,25.57-66.32,38.58-79.76a104.41,104.41,0,0,1,9.93-9.19c14.56-8.84,34.45-18.64,58-23.19a137.39,137.39,0,0,1,42.55-1.59,135.21,135.21,0,0,1,14.46,2.55l.32.08c1.35.31,2.7.66,4.06,1a141.21,141.21,0,0,1,16.91,5.68c.93.36,1.86.76,2.79,1.16a181.67,181.67,0,0,1,43.54,27l.11.08c1.68,1.38,3.36,2.79,5,4.26A285.58,285.58,0,0,1,1056.08,495,293.12,293.12,0,0,1,1087.43,542.22Z" transform="translate(-234.07 -46.07)"/><path class="cls-75" d="M813.51,335.5s-3.09-9.95-14.62-.84-14.59,19.93-14.59,19.93" transform="translate(-234.07 -46.07)"/><path class="cls-75" d="M843,332.32s7.59-4.45,10.4,10.38" transform="translate(-234.07 -46.07)"/><ellipse class="cls-49" cx="809.7" cy="359.12" rx="10.37" ry="3.66" transform="translate(170.43 1100.7) rotate(-86.69)"/><ellipse class="cls-49" cx="850.32" cy="354.13" rx="7.93" ry="2.8" transform="translate(213.69 1136.55) rotate(-86.69)"/><path class="cls-76" d="M1022.53,460c-4.26-2.26-9-4.54-14.13-6.7-28.61-11.93-70.29-20-116.8,1,0,0-16.5,6.11-32.34,23q-2.4,2.55-4.75,5.43c-17.1,21-32.07,52.19-44.31,39.73s-6.83-21.9-6.83-21.9A157.06,157.06,0,0,1,836,460.3a132.83,132.83,0,0,1,38.27-24.12c16.73-6.78,30.16-11.47,42.34-14.51l.18,0a151.43,151.43,0,0,1,18.48-3.43c.6-.07,1.19-.15,1.8-.21h0c.86.16,1.71.32,2.58.5q5,1,10.07,2.26l.32.08c1.35.31,2.7.66,4.06,1a141.21,141.21,0,0,1,16.91,5.68c.93.36,1.86.76,2.79,1.16a181.28,181.28,0,0,1,43.45,26.91l.09.07.11.08C1019.18,457.14,1020.86,458.55,1022.53,460Z" transform="translate(-234.07 -46.07)"/><path class="cls-77" d="M835.6,355.11l11,21.41-11.46,7.9S847.73,377.81,835.6,355.11Z" transform="translate(-234.07 -46.07)"/><path class="cls-37" d="M812,530.18s14.37-3.88,23.29-31.48,33.41-49.4,33.41-49.4S831,466.68,817.54,487.9A50.94,50.94,0,0,0,812,530.18Z" transform="translate(-234.07 -46.07)"/><path class="cls-75" d="M835.29,402.76s-20.12,9.84-30.1-7.85" transform="translate(-234.07 -46.07)"/><path class="cls-57" d="M1020.39,890.73S949.94,1049.07,736,1111.3q-8,.46-16.91,1h-.18c-16.76,1.06-36.21,2.36-59.21,3.83-138.16,8.8-168.76-70.43-172.94-83.87,8.35,9.16,60.6,62.11,157.37,67.7C750.06,1106.12,911.64,1038.45,1020.39,890.73Z" transform="translate(-234.07 -46.07)"/><path class="cls-57" d="M934.55,817.71C918.69,855.62,879.64,924.33,790,986.2c-131.51,90.74-295.19,45.91-297.36,45.32,288,48.54,406.52-210.95,406.52-210.95Z" transform="translate(-234.07 -46.07)"/><path class="cls-43" d="M821.64,523.63c-7.38,8.29-17.45,9.62-22.5,3s-3.16-18.78,4.22-27.08a20.76,20.76,0,0,1,11.44-7,10.84,10.84,0,0,1,11.06,4C830.9,503.22,829,515.33,821.64,523.63Z" transform="translate(-234.07 -46.07)"/><path class="cls-78" d="M821.64,523.63c-16.32,12.77-21.39-4.9-17.48-16.76s10.63-14.31,10.63-14.31v0a10.84,10.84,0,0,1,11.06,4C830.9,503.22,829,515.33,821.64,523.63Z" transform="translate(-234.07 -46.07)"/><path class="cls-45" d="M821.37,510.94c.92,1.21,2.74,1,4.08-.53a4.93,4.93,0,0,0,1.27-3.33,2.77,2.77,0,0,0-.5-1.58c-.92-1.21-2.75-1-4.09.53S820.46,509.74,821.37,510.94Z" transform="translate(-234.07 -46.07)"/><path class="cls-45" d="M816.21,506.58c.59.78,1.77.62,2.64-.35a3.23,3.23,0,0,0,.82-2.15,1.75,1.75,0,0,0-.33-1c-.59-.78-1.77-.62-2.64.35A2.69,2.69,0,0,0,816.21,506.58Z" transform="translate(-234.07 -46.07)"/><path class="cls-49" d="M1070.09,543.54l-19.18,1.56c-25.68-43-64.18-80-104.52-84.71a73.84,73.84,0,0,0-10.51-.49c-26.82.71-47.33,12.23-63.87,26.71-4.6,4-8.89,8.29-12.92,12.6-9.76,10.47-18,21.3-25.44,30.13.58-1.56,31.06-81.52,118.06-78.91C999.93,451.87,1042,500.22,1070.09,543.54Z" transform="translate(-234.07 -46.07)"/><path class="cls-37" d="M1017.39,455.68a124,124,0,0,0-16.21-9c-21.8-10.22-63-23.46-108.72-7.06.82-.56,25.35-17.24,61.51-17.8h.18a141.21,141.21,0,0,1,16.91,5.68c.93.36,1.86.76,2.79,1.16A181.67,181.67,0,0,1,1017.39,455.68Z" transform="translate(-234.07 -46.07)"/><path class="cls-37" d="M939.7,418.49l-1.38.11a179.43,179.43,0,0,0-21.49,3l-.18,0c-19,3.87-42.1,11.63-67.45,26.48,1-.8,27.7-21.9,61.34-30.64,2.89-.75,5.82-1.41,8.8-2,5.73.53,11.67,1.32,17.77,2.44h0C938,418.15,938.83,418.31,939.7,418.49Z" transform="translate(-234.07 -46.07)"/><path class="cls-79" d="M788.38,518.64S773,540.33,756.91,543.07s-20.71-1.2-20.71-1.2,9.47,5.44,24.3,2.63,26.44-17.84,26.44-17.84Z" transform="translate(-234.07 -46.07)"/><path class="cls-80" d="M600.19,573.51,576.84,607a11.33,11.33,0,0,1-10.29,4.81l35-48.68A11.27,11.27,0,0,1,600.19,573.51Z" transform="translate(-234.07 -46.07)"/><path class="cls-81" d="M621.69,582.08,598.34,615.6a11.28,11.28,0,0,1-10.28,4.81l35-48.68A11.29,11.29,0,0,1,621.69,582.08Z" transform="translate(-234.07 -46.07)"/><path class="cls-82" d="M632.54,605.93l-23.35,33.52a11.32,11.32,0,0,1-10.29,4.81l35-48.68A11.26,11.26,0,0,1,632.54,605.93Z" transform="translate(-234.07 -46.07)"/><path class="cls-83" d="M644.74,627.41l-23.35,33.52a11.28,11.28,0,0,1-10.28,4.81l35-48.68A11.29,11.29,0,0,1,644.74,627.41Z" transform="translate(-234.07 -46.07)"/><path class="cls-84" d="M1024.51,841c-.23.15-.45.31-.66.46-11.46,7.89-15.11,7.68-28.51,6.91s-18.42,1.38-31.67-1.83a18,18,0,0,1-4.06-1.57h0s18,4.21,29.41-3.68C998,835.06,1009,845.51,1024.51,841Z" transform="translate(-234.07 -46.07)"/><path class="cls-85" d="M980.83,813.89c-5,.93-10.1,5.53-19.88,7.93-9.61,2.37-27.38-3.76-28-4v0L968.36,815C979.79,814.54,983.4,813.4,980.83,813.89Z" transform="translate(-234.07 -46.07)"/><rect class="cls-46" x="950.12" y="779.31" width="18.88" height="52.39" rx="6.47" transform="translate(-59.45 1735.9) rotate(-91.22)"/><path class="cls-86" d="M976.6,814.58l-33.68.72a9.31,9.31,0,0,1-8.2-4.52l49.43-.32A9.3,9.3,0,0,1,976.6,814.58Z" transform="translate(-234.07 -46.07)"/><path class="cls-87" d="M759.26,396.54s-13.07-27.65-16.65-29.08-5,2.16-4.15,8.32c0,0,.42-7.31,3.8-2.23,0,0-3.66-.21.79,7.38s8.83,16.4,12.42,17.83S760.2,401.48,759.26,396.54Z" transform="translate(-234.07 -46.07)"/><path class="cls-88" d="M846.43,294.63l-87.38,53.58c2.05-1.4,67.6-46.42,80.49-61.32,13.1-15.13-17.45-36.45-40.83-54.91S750.05,197,753.89,220c-4.44-11-5-20.92,6.24-18.38,14.48,3.28,86,56.3,92.51,70.12S846.43,294.63,846.43,294.63Z" transform="translate(-234.07 -46.07)"/><path class="cls-89" d="M748.42,402.52c-1.81-1.85-26.84-27.69-37.7-43.62C699.45,342.36,730,322.12,730,322.12l-.07,0a47.56,47.56,0,0,1,9.31-1.26c-17.83,12.42-24.41,20.59-25,31.55-.39,6.7,14.53,25.25,26.18,38.66A103.09,103.09,0,0,0,748.42,402.52Z" transform="translate(-234.07 -46.07)"/><path class="cls-90" d="M753.13,291.07s-58.4-5.55-58.46,4.46c-10-12.56,36.54-10.09,45.63-9.49C746.66,287.23,751.46,288.87,753.13,291.07Z" transform="translate(-234.07 -46.07)"/><path class="cls-91" d="M714.43,255.84l0,0h0S714.43,255.85,714.43,255.84Z" transform="translate(-234.07 -46.07)"/><path class="cls-92" d="M785.52,258.71c-1.16-.17-27.17-4-50.84-7.82-22.81-3.61-21.22,3-21,3.77a30,30,0,0,1-1.69-3.24c-5.15-12,54.2,1,59.4,2.15C779.5,256.37,785.05,258.52,785.52,258.71Z" transform="translate(-234.07 -46.07)"/><path class="cls-93" d="M750.76,353.27s80-51.61,92.8-61.87,1.9-32.89-38.18-58.42-39.5-14.51-32.68-5.56,66.74,29.52,35.81,57.07S750.76,353.27,750.76,353.27Z" transform="translate(-234.07 -46.07)"/><polygon class="cls-94" points="521.03 304.39 533.72 350.96 524.93 302.18 521.03 304.39"/><path class="cls-95" d="M763.75,322.47a3.23,3.23,0,0,0,4.6,4.43c19-14.76,47.64-37.53,51.2-43,5.36-8.25.91-15.84-12.84-10.52C797.76,276.85,777.09,304,763.75,322.47Z" transform="translate(-234.07 -46.07)"/><g class="cls-96"><path class="cls-26" d="M1022.53,460c-1.67-1.47-3.35-2.88-5-4.26l-.11-.08a181.67,181.67,0,0,0-43.54-27c-.93-.4-1.86-.8-2.79-1.16a141.21,141.21,0,0,0-16.91-5.68c-1.36-.37-2.71-.72-4.06-1l-.32-.08a135.21,135.21,0,0,0-14.46-2.55,137.39,137.39,0,0,0-42.55,1.59c15.29-.34,34.17,1.71,56.56,8.5,47,14.27,96.51,54.33,129.5,114.55l7.14-.58a14.43,14.43,0,0,1,1.47,0A293.12,293.12,0,0,0,1056.08,495,285.58,285.58,0,0,0,1022.53,460Z" transform="translate(-234.07 -46.07)"/><path class="cls-26" d="M1104.27,578.65l3,37.17c2.21,8.83,4.11,17.91,5.63,27.25,8.51,52,10.79,100.38,8.28,145.11,0,.85-.09,1.7-.16,2.54a0,0,0,0,1,0,.06,557.17,557.17,0,0,1-28.23,146c9.15-20.73,16.85-40,22.88-55.83C1141.46,813.06,1146.34,684.81,1104.27,578.65Z" transform="translate(-234.07 -46.07)"/></g><circle class="cls-59" cx="537.36" cy="649.48" r="7.41"/><circle class="cls-59" cx="534.29" cy="651.37" r="11.39"/><path class="cls-19" d="M683.25,333.46a1.5,1.5,0,0,0,0-3,1.5,1.5,0,0,0,0,3Z" transform="translate(-234.07 -46.07)"/><path class="cls-19" d="M697.08,461.66a1.5,1.5,0,0,0,0-3,1.5,1.5,0,0,0,0,3Z" transform="translate(-234.07 -46.07)"/><path class="cls-19" d="M690.33,431a1,1,0,0,0,0-2,1,1,0,0,0,0,2Z" transform="translate(-234.07 -46.07)"/><path class="cls-19" d="M714.19,238.48a1,1,0,0,0,0-2,1,1,0,0,0,0,2Z" transform="translate(-234.07 -46.07)"/><path class="cls-19" d="M893.36,322.44a1,1,0,0,0,0-2,1,1,0,0,0,0,2Z" transform="translate(-234.07 -46.07)"/><path class="cls-19" d="M726.69,456.43a1,1,0,0,0,0-2,1,1,0,0,0,0,2Z" transform="translate(-234.07 -46.07)"/><path class="cls-19" d="M1167.66,732.82a1,1,0,0,0,0-2,1,1,0,0,0,0,2Z" transform="translate(-234.07 -46.07)"/><path class="cls-19" d="M1150.19,819.07a1,1,0,0,0,0-2,1,1,0,0,0,0,2Z" transform="translate(-234.07 -46.07)"/><path class="cls-19" d="M1155.73,830a1,1,0,0,0,0-2,1,1,0,0,0,0,2Z" transform="translate(-234.07 -46.07)"/><path class="cls-19" d="M1221.19,793.37a1,1,0,0,0,0-2,1,1,0,0,0,0,2Z" transform="translate(-234.07 -46.07)"/></svg>